<svg width="0" height="0" class="hidden">

    <symbol xmlns="http://www.w3.org/2000/svg" width="19" height="25" viewBox="0 0 19 25"
        id="map-icon"
        fill="none">
        <path
            d="M9.34824 21.0616C9.68894 21.0616 10.7825 20.6066 12.3472 19.1571C14.8331 16.865 17.7354 12.8369 17.7354 9.04477C17.7354 6.80309 16.8464 4.65323 15.264 3.06813C13.6817 1.48303 11.5356 0.592529 9.29776 0.592529C7.05997 0.592529 4.91384 1.48303 3.33148 3.06813C1.74913 4.65323 0.860171 6.80309 0.860171 9.04477C0.860171 15.0026 7.78774 20.9352 9.34824 21.0616ZM9.29776 4.00966C10.0931 4.00966 10.8705 4.2459 11.5318 4.68851C12.193 5.13113 12.7084 5.76023 13.0128 6.49626C13.3171 7.2323 13.3968 8.04221 13.2416 8.82359C13.0864 9.60496 12.7035 10.3227 12.1411 10.886C11.5788 11.4494 10.8623 11.833 10.0822 11.9884C9.30222 12.1439 8.49371 12.0641 7.75895 11.7592C7.02419 11.4543 6.39618 10.938 5.95434 10.2756C5.51249 9.61321 5.27666 8.83443 5.27666 8.03775C5.27777 6.96977 5.70178 5.94586 6.45564 5.19069C7.2095 4.43552 8.23164 4.01078 9.29776 4.00966ZM18.4672 21.8537C18.4672 22.6417 15.2327 24.1712 9.29776 24.1712C3.36285 24.1712 0.128296 22.6417 0.128296 21.8537C0.128296 21.3271 1.64252 20.3495 5.01587 19.8439C5.07448 19.8346 5.13127 19.8162 5.18412 19.7891C6.76564 21.2849 8.31352 22.2456 9.24729 22.3172H9.36506C10.6269 22.3172 12.465 20.7625 13.2053 20.0799C13.2978 19.9956 13.3904 19.9029 13.4829 19.8102C13.5146 19.8205 13.5469 19.829 13.5797 19.8355C16.953 20.3495 18.4672 21.3271 18.4672 21.8537Z"
            fill="white" />
    </symbol>
    <!-- how works -->
    <symbol xmlns="http://www.w3.org/2000/svg" width="79" height="79" viewBox="0 0 79 79"
        fill="none" id="payment">
        <path
            d="M31.168 74.0624C31.4953 74.0624 31.8093 73.9323 32.0408 73.7008C32.2723 73.4694 32.4023 73.1554 32.4023 72.828C32.4023 72.5006 32.2723 72.1867 32.0408 71.9552C31.8093 71.7237 31.4953 71.5936 31.168 71.5936H20.0586C19.7312 71.5936 19.4172 71.7237 19.1858 71.9552C18.9543 72.1867 18.8242 72.5006 18.8242 72.828C18.8242 73.1554 18.9543 73.4694 19.1858 73.7008C19.4172 73.9323 19.7312 74.0624 20.0586 74.0624H31.168ZM49.0664 34.8185V37.7724C49.0769 37.7748 49.0862 37.7785 49.0967 37.7804C51.4415 36.4113 53.2695 34.3071 54.2973 31.7939C55.3251 29.2806 55.4954 26.4985 54.7818 23.8786C54.0682 21.2588 52.5105 18.9474 50.3501 17.3025C48.1897 15.6576 45.5472 14.7711 42.8319 14.7803C40.1166 14.7896 37.4801 15.694 35.3309 17.3534C33.1817 19.0129 31.6398 21.3349 30.9439 23.9595C30.2481 26.5841 30.4373 29.365 31.4821 31.8713C32.527 34.3775 34.3691 36.4692 36.7233 37.8224V34.8481C35.1234 33.5734 33.959 31.8332 33.3909 29.868C32.8229 27.9029 32.8792 25.8098 33.5521 23.878C34.225 21.9462 35.4813 20.2712 37.1474 19.0843C38.8134 17.8973 40.807 17.2572 42.8526 17.2523C44.8983 17.2474 46.8949 17.8779 48.5666 19.0568C50.2384 20.2357 51.5027 21.9048 52.1849 23.8333C52.8671 25.7618 52.9334 27.8546 52.3748 29.8224C51.8162 31.7903 50.6601 33.5361 49.0664 34.8185Z"
            fill="white" />
        <path
            d="M69.7422 9.875H14.1953C13.2135 9.87614 12.2723 10.2667 11.5781 10.9609C10.8838 11.6551 10.4933 12.5963 10.4922 13.5781V40.7344C10.4933 41.7162 10.8838 42.6574 11.5781 43.3516C12.2723 44.0458 13.2135 44.4364 14.1953 44.4375H36.7233V41.9688H22.7631C22.4796 39.4667 21.3558 37.1349 19.5753 35.3544C17.7948 33.5739 15.4629 32.4501 12.9609 32.1666V22.1459C15.4629 21.8624 17.7948 20.7386 19.5753 18.9581C21.3558 17.1776 22.4796 14.8458 22.7631 12.3438H61.1744C61.4579 14.8458 62.5817 17.1776 64.3622 18.9581C66.1427 20.7386 68.4746 21.8624 70.9766 22.1459V32.1666C68.4746 32.4501 66.1427 33.5739 64.3622 35.3544C62.5817 37.1349 61.4579 39.4667 61.1744 41.9688H55.4543C56.5677 42.5055 57.4932 43.366 58.1094 44.4375H69.7422C70.724 44.4364 71.6652 44.0458 72.3594 43.3516C73.0537 42.6574 73.4442 41.7162 73.4453 40.7344V13.5781C73.4442 12.5963 73.0537 11.6551 72.3594 10.9609C71.6652 10.2667 70.724 9.87614 69.7422 9.875ZM20.2684 41.9688H14.1953C13.8681 41.9683 13.5544 41.8381 13.323 41.6067C13.0916 41.3753 12.9614 41.0616 12.9609 40.7344V34.6612C14.8035 34.9299 16.51 35.7863 17.8267 37.103C19.1434 38.4196 19.9997 40.1262 20.2684 41.9688ZM12.9609 19.6512V13.5781C12.9614 13.2509 13.0916 12.9372 13.323 12.7058C13.5544 12.4744 13.8681 12.3442 14.1953 12.3438H20.2684C19.9997 14.1863 19.1434 15.8929 17.8267 17.2095C16.51 18.5262 14.8035 19.3826 12.9609 19.6512ZM70.9766 40.7344C70.9761 41.0616 70.8459 41.3753 70.6145 41.6067C70.3831 41.8381 70.0694 41.9683 69.7422 41.9688H63.6691C63.9378 40.1262 64.7941 38.4196 66.1108 37.103C67.4275 35.7863 69.134 34.9299 70.9766 34.6612V40.7344ZM70.9766 19.6512C69.134 19.3826 67.4275 18.5262 66.1108 17.2095C64.7941 15.8929 63.9378 14.1863 63.6691 12.3438H69.7422C70.0694 12.3442 70.3831 12.4744 70.6145 12.7058C70.8459 12.9372 70.9761 13.2509 70.9766 13.5781V19.6512Z"
            fill="white" />
        <path
            d="M42.9797 19.7699C42.7746 19.7703 42.5779 19.8518 42.4325 19.9965C42.2871 20.1412 42.2047 20.3374 42.2033 20.5426V21.4782C40.0431 21.7084 39.0976 22.9718 39.0976 24.4333C39.0976 26.0689 40.1499 26.8397 41.3837 27.3514C42.3847 27.0918 43.4354 27.0913 44.4366 27.3501C45.4379 27.6088 46.3568 28.1181 47.1068 28.8302C46.2983 25.722 41.0559 26.4188 41.0559 24.4333C41.0559 23.7773 41.5781 23.1366 42.9797 23.1366C43.8471 23.1272 44.6877 23.4369 45.3417 24.0068C45.5305 24.213 45.7892 24.3417 46.0675 24.3679C46.3035 24.3727 46.5319 24.2839 46.7026 24.1208C46.8733 23.9577 46.9725 23.7337 46.9785 23.4977C46.9766 23.3093 46.9176 23.126 46.8094 22.9718C46.4269 22.5359 45.9614 22.1807 45.44 21.927C44.9186 21.6733 44.3518 21.5262 43.7728 21.4943V20.5426C43.7716 20.4397 43.7501 20.3381 43.7096 20.2436C43.669 20.1491 43.6102 20.0634 43.5366 19.9917C43.4629 19.9199 43.3758 19.8633 43.2802 19.8253C43.1847 19.7872 43.0826 19.7684 42.9797 19.7699Z"
            fill="white" />
        <path
            d="M38.5742 76.5312H10.4922C9.83743 76.5312 9.2095 76.2711 8.74652 75.8082C8.28354 75.3452 8.02344 74.7173 8.02344 74.0625V4.9375C8.02344 4.28275 8.28354 3.65481 8.74652 3.19183C9.2095 2.72885 9.83743 2.46875 10.4922 2.46875H18.7045L21.0128 6.75697C21.1185 6.95343 21.2755 7.11755 21.4671 7.23188C21.6587 7.34621 21.8778 7.40647 22.1009 7.40625H34.0644C34.2873 7.40624 34.5061 7.34588 34.6974 7.23156C34.8888 7.11725 35.0456 6.95324 35.1513 6.75697L37.4596 2.46875H45.0547C45.7094 2.46875 46.3374 2.72885 46.8004 3.19183C47.2633 3.65481 47.5234 4.28275 47.5234 4.9375V7.40625H49.9922V4.9375C49.9907 3.62844 49.47 2.37343 48.5444 1.44778C47.6188 0.522142 46.3637 0.00147021 45.0547 0L10.4922 0C9.18313 0.00147021 7.92811 0.522142 7.00247 1.44778C6.07683 2.37343 5.55616 3.62844 5.55469 4.9375V74.0625C5.55632 75.3715 6.07704 76.6264 7.00265 77.552C7.92826 78.4776 9.18318 78.9984 10.4922 79H38.7902C38.6482 78.6039 38.5751 78.1864 38.5742 77.7656V76.5312ZM34.6557 2.46875L33.3269 4.9375H22.8372L21.5084 2.46875H34.6557Z"
            fill="white" />
        <path
            d="M57.7071 46.9062C57.2785 46.9072 56.8535 46.983 56.4511 47.1302C56.3933 46.5737 56.2097 46.0376 55.9143 45.5625C55.6188 45.0873 55.2192 44.6856 54.7457 44.3875C54.2722 44.0895 53.7371 43.903 53.1809 43.8422C52.6247 43.7813 52.062 43.8477 51.5352 44.0363V43.8203C51.5369 43.2274 51.3958 42.6428 51.1238 42.1159C50.8519 41.589 50.4571 41.1354 49.9728 40.7934C49.4885 40.4513 48.9289 40.231 48.3415 40.1508C47.754 40.0707 47.1559 40.1333 46.5977 40.3332V33.3281C46.604 32.8378 46.5129 32.3511 46.3297 31.8963C46.1464 31.4415 45.8747 31.0277 45.5302 30.6787C45.1858 30.3298 44.7754 30.0527 44.323 29.8636C43.8706 29.6745 43.3852 29.5771 42.8949 29.5771C42.4045 29.5771 41.9191 29.6745 41.4667 29.8636C41.0143 30.0527 40.604 30.3298 40.2595 30.6787C39.915 31.0277 39.6433 31.4415 39.4601 31.8963C39.2768 32.3511 39.1857 32.8378 39.192 33.3281V51.5326C38.0529 50.4481 36.92 49.3571 35.7932 48.2597C35.0857 47.6009 34.1554 47.2336 33.1887 47.2315C32.5606 47.2359 31.9431 47.3928 31.3891 47.6887C30.8351 47.9845 30.3613 48.4105 30.0083 48.93C29.5171 49.6842 29.2805 50.576 29.3331 51.4746C29.3858 52.3732 29.7249 53.2313 30.3008 53.923L38.2632 63.1568C38.9865 64.0652 39.62 65.0416 40.1549 66.0723C41.061 67.8141 41.6869 69.6879 42.0095 71.6246C41.7356 71.6853 41.4905 71.8377 41.3148 72.0565C41.1391 72.2753 41.0432 72.5475 41.043 72.8281V77.7656C41.043 78.093 41.173 78.4069 41.4045 78.6384C41.636 78.8699 41.95 79 42.2774 79H58.3242C58.6516 79 58.9656 78.8699 59.1971 78.6384C59.4286 78.4069 59.5586 78.093 59.5586 77.7656V72.8281C59.5586 72.5007 59.4286 72.1867 59.1971 71.9552C58.9656 71.7238 58.6516 71.5937 58.3242 71.5937H57.8268C58.0691 70.3084 58.5269 69.0733 59.1809 67.9406C59.2236 67.8752 59.263 67.8076 59.2988 67.7381C61.1695 64.5454 61.4102 60.538 61.4102 57.3984V50.6093C61.409 49.6276 61.0185 48.6863 60.3243 47.9921C59.6301 47.2979 58.6888 46.9073 57.7071 46.9062ZM57.0899 76.5312H43.5117V74.0625H57.0899V76.5312ZM58.9414 57.3984C58.9414 60.235 58.7378 63.835 57.1281 66.5698C57.1084 66.5957 57.0911 66.6235 57.0744 66.6519C56.1932 68.1782 55.5991 69.8532 55.3216 71.5937H44.5011C44.1576 69.2679 43.4283 67.0157 42.3434 64.9299C41.7277 63.7447 40.9974 62.6227 40.1629 61.5798L32.2012 52.3479C31.9645 52.0722 31.8215 51.7284 31.7928 51.3661C31.764 51.0039 31.8511 50.6418 32.0413 50.3322C32.1661 50.1407 32.3361 49.9829 32.5363 49.8727C32.7365 49.7625 32.9608 49.7033 33.1893 49.7002C33.5247 49.6992 33.8482 49.8246 34.0953 50.0514C40.0265 55.8252 40.0265 55.8233 40.9047 55.4543C41.1287 55.3588 41.3197 55.1998 41.4541 54.9968C41.5885 54.7938 41.6604 54.5559 41.6608 54.3125V33.3281C41.6571 33.1637 41.6863 33.0002 41.7467 32.8473C41.8071 32.6944 41.8974 32.555 42.0123 32.4375C42.1273 32.3199 42.2646 32.2265 42.4161 32.1627C42.5677 32.099 42.7304 32.0661 42.8949 32.0661C43.0593 32.0661 43.2221 32.099 43.3736 32.1627C43.5252 32.2265 43.6624 32.3199 43.7774 32.4375C43.8924 32.555 43.9827 32.6944 44.043 32.8473C44.1034 33.0002 44.1326 33.1637 44.1289 33.3281V54.9296C44.1289 55.257 44.259 55.571 44.4905 55.8025C44.722 56.034 45.0359 56.164 45.3633 56.164C45.6907 56.164 46.0047 56.034 46.2361 55.8025C46.4676 55.571 46.5977 55.257 46.5977 54.9296V43.8203C46.5977 43.4929 46.7277 43.1789 46.9592 42.9474C47.1907 42.7159 47.5047 42.5859 47.8321 42.5859C48.1594 42.5859 48.4734 42.7159 48.7049 42.9474C48.9364 43.1789 49.0664 43.4929 49.0664 43.8203V54.9296C49.0664 55.257 49.1965 55.571 49.428 55.8025C49.6595 56.034 49.9734 56.164 50.3008 56.164C50.6282 56.164 50.9422 56.034 51.1736 55.8025C51.4051 55.571 51.5352 55.257 51.5352 54.9296V47.5234C51.5352 47.196 51.6652 46.882 51.8967 46.6506C52.1282 46.4191 52.4422 46.289 52.7696 46.289C53.0969 46.289 53.4109 46.4191 53.6424 46.6506C53.8739 46.882 54.0039 47.196 54.0039 47.5234V54.9296C54.0039 55.257 54.134 55.571 54.3655 55.8025C54.597 56.034 54.9109 56.164 55.2383 56.164C55.5657 56.164 55.8797 56.034 56.1111 55.8025C56.3426 55.571 56.4727 55.257 56.4727 54.9296V50.6093C56.4727 50.282 56.6027 49.968 56.8342 49.7365C57.0657 49.505 57.3797 49.375 57.7071 49.375C58.0344 49.375 58.3484 49.505 58.5799 49.7365C58.8114 49.968 58.9414 50.282 58.9414 50.6093V57.3984Z"
            fill="white" />
    </symbol>

    <symbol xmlns="http://www.w3.org/2000/svg" width="72" height="82" viewBox="0 0 72 82"
        fill="none" id="mechanic-user">
        <path
            d="M27.8649 31.0857C27.986 31.1953 28.1282 31.2765 28.282 31.3237C28.4359 31.371 28.5976 31.3831 28.7564 31.3594C31.3402 30.9759 33.9632 30.9759 36.547 31.3594C36.5991 31.367 36.6517 31.3709 36.7043 31.3709C36.851 31.3713 36.9963 31.3415 37.1319 31.2833C37.2676 31.225 37.3908 31.1395 37.4947 31.0315C37.5985 30.9236 37.6809 30.7953 37.7371 30.6541C37.7933 30.5129 37.8223 30.3615 37.8222 30.2087V28.4101C37.8236 28.1331 37.7296 27.8647 37.5572 27.6538C37.3848 27.4429 37.1456 27.3034 36.8829 27.2607C36.2903 27.163 35.6947 27.0857 35.0973 27.0288C35.1042 26.9503 35.1088 26.8713 35.1088 26.7911V26.1148C35.1088 25.9661 35.0521 25.8235 34.9512 25.7184C34.8504 25.6133 34.7135 25.5542 34.5709 25.5542C34.4282 25.5542 34.2914 25.6133 34.1905 25.7184C34.0896 25.8235 34.0329 25.9661 34.0329 26.1148V26.7911C34.0357 26.9819 34.002 27.1713 33.9338 27.3484C33.8656 27.5255 33.7643 27.6867 33.6358 27.8226C33.5073 27.9585 33.3542 28.0664 33.1853 28.1401C33.0164 28.2138 32.8351 28.2517 32.652 28.2517C32.4689 28.2517 32.2876 28.2138 32.1187 28.1401C31.9498 28.0664 31.7967 27.9585 31.6682 27.8226C31.5397 27.6867 31.4384 27.5255 31.3702 27.3484C31.3021 27.1713 31.2684 26.9819 31.2711 26.7911V26.1148C31.2711 25.9661 31.2144 25.8235 31.1135 25.7184C31.0127 25.6133 30.8758 25.5542 30.7332 25.5542C30.5905 25.5542 30.4537 25.6133 30.3528 25.7184C30.2519 25.8235 30.1952 25.9661 30.1952 26.1148V26.7911C30.1952 26.8712 30.1998 26.9498 30.2066 27.0278C29.606 27.0845 29.0075 27.1623 28.4212 27.2607C28.1585 27.3034 27.9192 27.4429 27.7468 27.6538C27.5745 27.8647 27.4804 28.1331 27.4818 28.4101V30.2087C27.4817 30.3749 27.5158 30.5393 27.5819 30.6906C27.648 30.8419 27.7445 30.9766 27.8649 31.0857ZM28.5576 28.4101C28.5572 28.4 28.5604 28.3901 28.5665 28.3823C28.5726 28.3745 28.5813 28.3693 28.5908 28.3677C29.2363 28.2596 29.8966 28.1787 30.558 28.1233C30.7763 28.4982 31.0837 28.8081 31.4504 29.0233C31.8171 29.2384 32.2309 29.3514 32.6517 29.3515C33.0726 29.3515 33.4863 29.2386 33.8531 29.0235C34.2199 28.8085 34.5273 28.4986 34.7458 28.1238C35.4045 28.1798 36.0651 28.2607 36.7146 28.368C36.7239 28.3698 36.7322 28.3751 36.7381 28.3828C36.7439 28.3906 36.7469 28.4003 36.7464 28.4101V30.2087C36.7467 30.2144 36.7457 30.2202 36.7435 30.2255C36.7412 30.2307 36.7379 30.2354 36.7336 30.2391C36.7287 30.2434 36.7229 30.2466 36.7167 30.2484C36.7104 30.2502 36.7039 30.2506 36.6975 30.2495C35.3771 30.0542 34.0452 29.9544 32.7115 29.9508C31.3377 29.9467 29.9654 30.0465 28.6054 30.2493C28.5993 30.2506 28.5929 30.2504 28.5868 30.2487C28.5808 30.2469 28.5752 30.2437 28.5706 30.2393C28.5663 30.2356 28.5629 30.2309 28.5607 30.2256C28.5585 30.2203 28.5574 30.2146 28.5576 30.2088V28.4101ZM26.845 21.3932C26.7024 21.3932 26.5656 21.4522 26.4647 21.5574C26.3638 21.6625 26.3071 21.8051 26.3071 21.9537V23.2438C26.3071 23.3925 26.3638 23.535 26.4647 23.6402C26.5656 23.7453 26.7024 23.8043 26.845 23.8043C26.9877 23.8043 27.1245 23.7453 27.2254 23.6402C27.3263 23.535 27.383 23.3925 27.383 23.2438V21.9537C27.383 21.8051 27.3263 21.6625 27.2254 21.5574C27.1245 21.4522 26.9877 21.3932 26.845 21.3932ZM28.5864 20.6891C28.6517 20.7171 28.7217 20.7313 28.7924 20.7311C28.863 20.7308 28.9329 20.716 28.9981 20.6876C29.0633 20.6592 29.1224 20.6177 29.1722 20.5655C29.222 20.5132 29.2614 20.4513 29.2882 20.3832C29.315 20.3151 29.3287 20.2421 29.3284 20.1685C29.3282 20.0949 29.314 20.022 29.2868 19.9541C29.2595 19.8862 29.2197 19.8246 29.1695 19.7727C29.1194 19.7208 29.06 19.6797 28.9946 19.6518C27.6175 19.0618 26.0726 19.0618 24.6955 19.6518C24.6301 19.6798 24.5707 19.7209 24.5206 19.7727C24.4704 19.8246 24.4306 19.8863 24.4034 19.9542C24.3761 20.0222 24.362 20.095 24.3617 20.1686C24.3615 20.2423 24.3752 20.3152 24.402 20.3833C24.4288 20.4514 24.4683 20.5134 24.5181 20.5656C24.5679 20.6178 24.6271 20.6593 24.6922 20.6877C24.7574 20.7161 24.8273 20.7309 24.898 20.7311C24.9686 20.7314 25.0387 20.7171 25.104 20.6891C25.6202 20.4676 26.171 20.3466 26.729 20.332C27.3651 20.3171 27.9973 20.4387 28.5864 20.6891ZM70.9277 45.2578C70.8075 45.0429 70.635 44.8648 70.4276 44.7416C70.2203 44.6185 69.9854 44.5545 69.7467 44.5563H69.7405C69.4978 44.5558 69.2593 44.6223 69.0492 44.7491C68.8392 44.8759 68.6651 45.0584 68.5448 45.2781L66.3415 49.2551C66.3214 49.2914 66.2946 49.3232 66.2627 49.3487C66.2309 49.3742 66.1945 49.3928 66.1556 49.4037C66.1168 49.4145 66.0763 49.4173 66.0365 49.4118C65.9966 49.4063 65.9582 49.3927 65.9234 49.3717L63.1462 47.7009C63.076 47.6586 63.0247 47.589 63.0037 47.5073C62.9826 47.4256 62.9935 47.3386 63.034 47.2653L65.1342 43.4749C65.2587 43.2501 65.3227 42.9944 65.3193 42.7348C65.3158 42.4753 65.2452 42.2215 65.1148 42.0003C64.9844 41.7791 64.799 41.5988 64.5784 41.4783C64.3577 41.3579 64.1099 41.3018 63.8612 41.316C62.0031 41.4238 60.245 42.2273 58.9102 43.5786C57.5755 44.9298 56.754 46.7379 56.5969 48.6702L53.7586 47.7778V47.5184C53.7596 47.2629 53.682 47.0139 53.5372 46.8079C53.3923 46.6018 53.1879 46.4496 52.9539 46.3736L48.7925 45.0039C48.5049 44.9095 48.1932 44.9365 47.9244 45.079C47.6557 45.2215 47.4513 45.4682 47.3552 45.7661L42.8034 44.3359C42.1526 44.1329 41.5593 43.7673 41.075 43.2709C41.0606 43.2496 41.0449 43.2294 41.0278 43.2105C41.0171 43.1991 41.0044 43.1908 40.9929 43.1807C40.2555 42.3786 39.8451 41.31 39.8479 40.1992V40.0214C41.7659 38.5177 43.3234 36.5711 44.3979 34.3346C45.4724 32.098 46.0348 29.6323 46.0408 27.1311V26.2193C47.0816 26.0816 48.0386 25.5535 48.7327 24.7337C49.4268 23.9139 49.8105 22.8587 49.812 21.7654C49.811 20.8301 49.454 19.9335 48.8194 19.2721C48.1847 18.6108 47.3242 18.2388 46.4267 18.2378H46.0408V8.64267C46.0383 6.35129 45.1637 4.15449 43.6088 2.53424C42.054 0.913981 39.9458 0.00258576 37.7469 0L27.5571 0C25.3582 0.00258576 23.2501 0.913981 21.6952 2.53424C20.1403 4.15449 19.2657 6.35129 19.2632 8.64267V18.2378H18.8773C17.9798 18.2388 17.1194 18.6108 16.4847 19.2721C15.8501 19.9334 15.4931 20.83 15.4921 21.7652C15.4935 22.8585 15.8772 23.9138 16.5713 24.7336C17.2654 25.5535 18.2224 26.0816 19.2632 26.2193V27.1311C19.2693 29.6323 19.8316 32.098 20.9062 34.3346C21.9807 36.5711 23.5381 38.5177 25.4561 40.0214V40.1992C25.4589 41.31 25.0485 42.3786 24.3111 43.1807C24.2996 43.1908 24.287 43.1991 24.2762 43.2105C24.2592 43.2294 24.2434 43.2495 24.229 43.2707C23.7448 43.7672 23.1514 44.1328 22.5006 44.3359L17.9488 45.7661C17.8527 45.4681 17.6482 45.2213 17.3792 45.0788C17.1102 44.9363 16.7983 44.9095 16.5106 45.0042L12.3512 46.3732C12.117 46.4492 11.9123 46.6014 11.7673 46.8075C11.6222 47.0136 11.5445 47.2628 11.5454 47.5184V47.7778L8.17338 48.8377C5.81234 49.5766 3.74245 51.0882 2.27032 53.1487C0.798189 55.2093 0.00210998 57.7091 0 60.278V81.4395C0 81.5881 0.0566742 81.7307 0.157555 81.8358C0.258435 81.9409 0.395258 82 0.537924 82C0.680591 82 0.817415 81.9409 0.918295 81.8358C1.01918 81.7307 1.07585 81.5881 1.07585 81.4395V71.9371H11.5454V74.2022L11.5451 74.2044V81.4395C11.5451 81.5881 11.6018 81.7307 11.7026 81.8358C11.8035 81.9409 11.9403 82 12.083 82H12.0833C12.226 82 12.3628 81.9409 12.4637 81.8358C12.5646 81.7307 12.6212 81.5881 12.6212 81.4395V47.5184C12.6212 47.5015 12.6263 47.4852 12.6358 47.4716C12.6453 47.458 12.6587 47.4479 12.6741 47.4428L16.8337 46.0737C16.8452 46.0699 16.8575 46.0689 16.8695 46.0709C16.8815 46.073 16.8929 46.078 16.9026 46.0855C16.9124 46.093 16.9204 46.1028 16.9258 46.1141C16.9312 46.1255 16.934 46.138 16.9339 46.1506V53.8557C16.9343 54.3016 17.1045 54.729 17.4071 55.0443C17.7096 55.3595 18.1198 55.5369 18.5476 55.5374H46.7564C47.1842 55.5369 47.5944 55.3595 47.897 55.0443C48.1995 54.729 48.3697 54.3016 48.3702 53.8557V46.1506C48.3698 46.1379 48.3724 46.1252 48.3779 46.1138C48.3834 46.1024 48.3915 46.0926 48.4015 46.0853C48.411 46.0775 48.4222 46.0724 48.434 46.0703C48.4459 46.0682 48.4581 46.0693 48.4695 46.0734L52.631 47.4429C52.6461 47.4482 52.6593 47.4584 52.6686 47.4719C52.6779 47.4855 52.6829 47.5017 52.6828 47.5184V64.0567L45.3266 77.3337C44.9397 78.0479 44.839 78.8924 45.0464 79.6835C45.2538 80.4747 45.7525 81.1486 46.4342 81.5586C47.1158 81.9686 47.9252 82.0816 48.6864 81.873C49.4476 81.6645 50.099 81.1512 50.499 80.4449L52.6829 76.503V81.4395C52.6829 81.5881 52.7396 81.7307 52.8405 81.8358C52.9414 81.9409 53.0782 82 53.2209 82C53.3635 82 53.5004 81.9409 53.6012 81.8358C53.7021 81.7307 53.7588 81.5881 53.7588 81.4395V74.5609L55.2121 71.9374H64.2282V81.4395C64.2282 81.5881 64.2849 81.7307 64.3857 81.8358C64.4866 81.9409 64.6234 82 64.7661 82C64.9088 82 65.0456 81.9409 65.1465 81.8358C65.2474 81.7307 65.304 81.5881 65.304 81.4395V60.278C65.3036 59.2826 65.1834 58.2912 64.9461 57.327C66.2447 57.2145 67.4945 56.76 68.5784 56.0062C69.6622 55.2524 70.5445 54.224 71.1425 53.0175C71.7404 51.811 72.0344 50.466 71.9968 49.1087C71.9592 47.7514 71.5913 46.4263 70.9277 45.2578ZM46.0408 19.3589H46.4267C47.039 19.3596 47.6259 19.6134 48.0589 20.0645C48.4918 20.5156 48.7354 21.1272 48.7361 21.7652C48.7348 22.5609 48.4636 23.3304 47.9703 23.9378C47.4771 24.5451 46.7936 24.9511 46.0408 25.084V19.3589ZM19.2632 25.084C18.5104 24.9511 17.827 24.5451 17.3338 23.9377C16.8406 23.3304 16.5693 22.5609 16.5681 21.7652C16.5688 21.1272 16.8124 20.5156 17.2453 20.0645C17.6782 19.6134 18.2652 19.3596 18.8775 19.3589H19.2634L19.2632 25.084ZM11.5454 70.816H1.07585V60.278C1.06814 57.9474 1.78604 55.6772 3.12179 53.8079C4.45755 51.9387 6.33909 50.5713 8.48399 49.9111L11.5454 48.9487V70.816ZM44.965 23.1471H44.8578C44.573 23.1467 44.2999 23.0287 44.0985 22.8188C43.8971 22.6089 43.7838 22.3244 43.7835 22.0276V15.2869H44.965V23.1471ZM20.3391 8.64251C20.3413 6.64838 21.1025 4.73659 22.4556 3.32654C23.8088 1.91649 25.6435 1.12334 27.5571 1.12109H37.7469C39.6606 1.12334 41.4953 1.91651 42.8485 3.32659C44.2016 4.73668 44.9628 6.64852 44.965 8.64267V10.8025H20.3391V8.64251ZM20.3391 11.9236H44.965V14.1658H20.3391V11.9236ZM20.3391 15.2869H21.5205V22.0272C21.5202 22.3241 21.4069 22.6086 21.2055 22.8185C21.0041 23.0283 20.731 23.1464 20.4462 23.1467H20.3391V15.2869ZM20.3391 27.1309V24.2678H20.4462C21.0163 24.2672 21.5628 24.0309 21.9659 23.6108C22.369 23.1908 22.5957 22.6213 22.5964 22.0272V15.2871H42.7077V22.0274C42.7083 22.6214 42.9351 23.191 43.3382 23.611C43.7413 24.031 44.2878 24.2673 44.8578 24.268H44.965V27.1311C44.9587 29.7587 44.2927 32.3388 43.0331 34.6151C41.7736 36.8913 39.9643 38.7845 37.7852 40.1065C36.2259 41.0496 34.455 41.5463 32.652 41.5463C30.8491 41.5463 29.0782 41.0496 27.5188 40.1065C25.3397 38.7845 23.5305 36.8913 22.2709 34.6151C21.0114 32.3388 20.3454 29.7587 20.3391 27.1311V27.1309ZM26.5025 40.7747C26.6592 40.8776 26.8179 40.978 26.9785 41.0758C28.7019 42.1182 30.6592 42.6673 32.652 42.6673C34.6448 42.6673 36.6021 42.1182 38.3256 41.0758C38.4864 40.9784 38.6451 40.878 38.8016 40.7747C38.9021 41.7983 39.2812 42.7706 39.894 43.5774C37.9079 45.4455 35.3275 46.4796 32.652 46.4796C29.9765 46.4796 27.3961 45.4455 25.41 43.5774C26.0229 42.7706 26.4019 41.7983 26.5025 40.7747ZM47.2943 53.8557C47.2942 54.0044 47.2374 54.1468 47.1366 54.2519C47.0357 54.357 46.899 54.4161 46.7564 54.4163H18.5476C18.405 54.4161 18.2683 54.357 18.1674 54.2519C18.0666 54.1468 18.0099 54.0044 18.0097 53.8557V46.9178L22.8111 45.4091C23.4868 45.1981 24.115 44.848 24.6585 44.3793C26.8455 46.4522 29.6956 47.6008 32.652 47.6008C35.6084 47.6008 38.4585 46.4522 40.6456 44.3793C41.189 44.848 41.8172 45.1981 42.493 45.4091L47.2943 46.9178V53.8557ZM53.7586 48.9487L56.5875 49.8382C56.6237 50.4244 56.7208 51.0047 56.8771 51.569C57.1396 52.5205 57.5688 53.4132 58.143 54.202L53.7586 62.115V48.9487ZM49.5674 79.884C49.442 80.1104 49.275 80.3089 49.076 80.468C48.877 80.6272 48.6499 80.7439 48.4075 80.8116C48.1652 80.8793 47.9125 80.8965 47.6638 80.8624C47.4151 80.8283 47.1752 80.7435 46.958 80.6128C46.7407 80.4821 46.5503 80.3081 46.3975 80.1007C46.2448 79.8933 46.1328 79.6566 46.0678 79.4041C46.0029 79.1516 45.9863 78.8883 46.019 78.6291C46.0518 78.3699 46.1332 78.12 46.2586 77.8936L58.8946 55.0873C59.4298 55.63 60.0372 56.0896 60.6982 56.4519C61.1779 56.714 61.6833 56.9215 62.2056 57.0709L49.5674 79.884ZM64.2282 70.8163H55.8332L63.3191 57.3036C63.4921 57.3251 63.6657 57.3406 63.8396 57.35C64.0976 58.3028 64.2284 59.288 64.2282 60.278V70.8163ZM69.8547 53.0979C69.2916 54.0024 68.5334 54.7573 67.6407 55.3023C66.748 55.8474 65.7454 56.1675 64.7128 56.2372C63.6803 56.3069 62.6465 56.1242 61.6937 55.7037C60.741 55.2832 59.8957 54.6365 59.2253 53.8152C59.22 53.8075 59.2133 53.8008 59.2075 53.7934C58.609 53.0527 58.1671 52.1888 57.9106 51.258C57.7437 50.656 57.6554 50.0333 57.6483 49.4068C57.6481 49.3967 57.6489 49.3866 57.6481 49.3767C57.6397 47.602 58.2861 45.8919 59.4536 44.5999C60.6212 43.3079 62.2205 42.5329 63.921 42.4352L63.9403 42.4347C63.9939 42.4354 64.0463 42.4507 64.0924 42.479C64.1385 42.5074 64.1767 42.5478 64.2032 42.5963C64.2297 42.6447 64.2436 42.6996 64.2435 42.7554C64.2434 42.8112 64.2292 42.866 64.2025 42.9143L62.1023 46.7048C61.9195 47.0356 61.8701 47.4285 61.965 47.7973C62.0598 48.1661 62.2912 48.4806 62.6083 48.6718L65.3855 50.3427C65.5426 50.4373 65.7161 50.4987 65.896 50.5234C66.076 50.5481 66.2588 50.5356 66.4341 50.4866C66.6094 50.4377 66.7737 50.3532 66.9177 50.2381C67.0616 50.123 67.1824 49.9794 67.2731 49.8156L69.4766 45.8386C69.5036 45.7893 69.5427 45.7483 69.5899 45.72C69.6371 45.6916 69.6907 45.6769 69.7451 45.6774H69.7467C69.7979 45.6761 69.8486 45.6893 69.8933 45.7155C69.938 45.7417 69.975 45.78 70.0006 45.8263C70.6294 46.932 70.949 48.1988 70.9232 49.4838C70.8974 50.7688 70.5274 52.0206 69.8547 53.0979ZM36.7178 20.6891C37.234 20.4677 37.7847 20.3466 38.3428 20.332C38.9789 20.3171 39.6111 20.4387 40.2002 20.6891C40.3322 20.7456 40.4803 20.745 40.6119 20.6876C40.7435 20.6302 40.8479 20.5207 40.902 20.3832C40.9561 20.2456 40.9556 20.0913 40.9006 19.9541C40.8455 19.817 40.7404 19.7082 40.6084 19.6518C39.2313 19.0618 37.6864 19.0618 36.3093 19.6518C36.2439 19.6798 36.1845 19.7209 36.1344 19.7727C36.0842 19.8246 36.0444 19.8863 36.0172 19.9542C35.9621 20.0914 35.9616 20.2458 36.0158 20.3833C36.07 20.5209 36.1744 20.6304 36.306 20.6877C36.4377 20.7451 36.5858 20.7456 36.7178 20.6891ZM38.459 21.3932C38.3163 21.3932 38.1795 21.4522 38.0786 21.5574C37.9777 21.6625 37.9211 21.8051 37.9211 21.9537V23.2438C37.9211 23.3925 37.9777 23.535 38.0786 23.6402C38.1795 23.7453 38.3163 23.8043 38.459 23.8043C38.6017 23.8043 38.7385 23.7453 38.8394 23.6402C38.9402 23.535 38.9969 23.3925 38.9969 23.2438V21.9537C38.9969 21.8051 38.9402 21.6625 38.8394 21.5574C38.7385 21.4522 38.6017 21.3932 38.459 21.3932ZM34.3934 33.0551C33.8043 33.3059 33.1721 33.4274 32.536 33.4123C31.9779 33.3977 31.4271 33.2766 30.9108 33.0551C30.779 32.9997 30.6316 33.001 30.5006 33.0585C30.3697 33.116 30.2659 33.2252 30.212 33.3622C30.158 33.4992 30.1583 33.6529 30.2127 33.7897C30.2672 33.9265 30.3713 34.0353 30.5025 34.0923C31.1398 34.3656 31.8198 34.5149 32.5088 34.5329C32.555 34.5342 32.6012 34.5348 32.6476 34.5348C33.3862 34.5336 34.1176 34.3834 34.8014 34.0923C34.8679 34.0652 34.9285 34.0246 34.9797 33.9728C35.0309 33.9211 35.0718 33.8592 35.0999 33.7908C35.1279 33.7225 35.1427 33.649 35.1432 33.5746C35.1437 33.5002 35.1301 33.4265 35.103 33.3577C35.0759 33.2889 35.036 33.2264 34.9855 33.1738C34.9351 33.1213 34.875 33.0797 34.809 33.0515C34.743 33.0234 34.6722 33.0092 34.6008 33.0098C34.5295 33.0104 34.4589 33.0258 34.3934 33.0551Z"
            fill="white" />
    </symbol>

    <symbol xmlns="http://www.w3.org/2000/svg" width="82" height="82" viewBox="0 0 82 82"
        fill="none" id="warranty">
        <path
            d="M72.2617 3.50158C72.4057 3.35734 72.5129 3.18072 72.5742 2.98657C72.6355 2.79242 72.6491 2.58644 72.6139 2.38595C72.5786 2.18547 72.4956 1.99636 72.3718 1.83454C72.248 1.67272 72.087 1.54293 71.9023 1.45609C69.0545 0.115218 65.8601 -0.313739 62.7579 0.228133C59.6557 0.770004 56.7979 2.25613 54.5769 4.48239C50.2494 8.82492 48.738 15.6449 50.7565 21.3469L21.3481 50.6672C19.7144 50.093 17.9934 49.8041 16.2611 49.8134C11.8928 49.8134 7.65703 51.5464 4.64203 54.5701C2.42886 56.7672 0.932992 59.5796 0.350426 62.6387C-0.23214 65.6979 0.125772 68.8612 1.37726 71.7141C1.4593 71.9051 1.58723 72.073 1.74978 72.203C1.91232 72.333 2.10447 72.4211 2.30926 72.4595C2.51405 72.4979 2.72518 72.4855 2.924 72.4233C3.12282 72.3611 3.30323 72.251 3.44928 72.1029L12.3465 63.1866C12.9326 62.5971 13.8782 62.5183 14.3675 63.0138L18.2083 67.0209C18.7664 67.5825 18.7409 68.4489 18.1522 69.041L9.28814 77.9344C9.14408 78.0784 9.03688 78.2548 8.97557 78.4488C8.91426 78.6427 8.90065 78.8486 8.93589 79.0489C8.97112 79.2492 9.05417 79.4381 9.17802 79.5997C9.30187 79.7613 9.46289 79.8908 9.64749 79.9773C11.71 80.9583 13.9658 81.4687 16.2509 81.4714C20.2573 81.4714 24.0624 79.8655 26.9729 76.9485C31.3005 72.6085 32.8118 65.7885 30.7907 60.0866L60.1991 30.7637C61.8338 31.3377 63.5556 31.6265 65.2887 31.6175C69.657 31.6175 73.8928 29.8845 76.9078 26.8608C79.121 24.6637 80.6168 21.8513 81.1994 18.7922C81.782 15.733 81.424 12.5697 80.1726 9.7168C80.0905 9.52582 79.9626 9.35791 79.8 9.2279C79.6375 9.09789 79.4453 9.00979 79.2406 8.97136C79.0358 8.93294 78.8246 8.94538 78.6258 9.00758C78.427 9.06979 78.2466 9.17984 78.1005 9.32803L69.2033 18.2443C68.9284 18.5093 68.5597 18.6552 68.1774 18.6505C67.7951 18.6457 67.4301 18.4906 67.1619 18.2189L63.3415 14.41C63.2053 14.2795 63.0968 14.123 63.0226 13.9498C62.9484 13.7765 62.91 13.5901 62.9098 13.4018C62.9095 13.2134 62.9474 13.0269 63.0212 12.8535C63.0949 12.6801 63.203 12.5232 63.339 12.3925L72.2617 3.50158ZM61.5371 16.2065L65.3575 20.0154C66.8841 21.545 69.499 21.5527 71.0103 20.0382L78.4777 12.5576C79.0692 14.7555 79.0687 17.0701 78.4763 19.2678C77.8838 21.4654 76.7204 23.4684 75.1034 25.0745C72.5624 27.6231 68.9893 29.0816 65.2912 29.0816C63.5505 29.0816 61.9016 28.7563 60.3903 28.116C60.1567 28.0168 59.8987 27.9895 59.6494 28.0375C59.4001 28.0855 59.1708 28.2066 58.9911 28.3854L28.4078 58.8771C28.2288 59.0554 28.1072 59.2829 28.0587 59.5305C28.0101 59.7781 28.0367 60.0345 28.1351 60.267C30.1816 65.1203 28.9354 71.3838 25.1711 75.1597C23.5491 76.7999 21.507 77.9653 19.2669 78.5289C17.0268 79.0925 14.6746 79.0328 12.4663 78.3562L19.9617 70.8349C21.5444 69.2468 21.5699 66.7846 20.0356 65.2498L16.1974 61.2427C14.7167 59.7562 12.084 59.8477 10.5446 61.4003L3.07719 68.8809C2.48568 66.683 2.48618 64.3684 3.07864 62.1707C3.67109 59.9731 4.83454 57.9701 6.45154 56.3641C8.9925 53.8155 12.5656 52.3569 16.2637 52.3569C18.0044 52.3569 19.6533 52.6822 21.1646 53.3225C21.3981 53.4224 21.6563 53.4501 21.9057 53.4021C22.1552 53.3541 22.3844 53.2325 22.5638 53.0532L53.1471 22.5614C53.3261 22.3831 53.4477 22.1556 53.4963 21.908C53.5448 21.6604 53.5182 21.404 53.4198 21.1715C51.3733 16.3183 52.6196 10.0522 56.3839 6.27632C58.0053 4.63764 60.0461 3.47328 62.2846 2.90973C64.5231 2.34618 66.8737 2.40499 69.081 3.07977L61.5371 10.6036C61.1641 10.9692 60.8678 11.4052 60.6656 11.8862C60.4633 12.3672 60.3592 12.8835 60.3592 13.405C60.3592 13.9266 60.4633 14.4429 60.6656 14.9239C60.8678 15.4048 61.1641 15.8408 61.5371 16.2065Z"
            fill="white" />
        <path
            d="M74.4432 77.9341C74.1598 78.2059 73.7816 78.3573 73.3884 78.3563C72.9951 78.3554 72.6176 78.2022 72.3355 77.929L46.773 52.5193C46.5294 52.3021 46.2116 52.1863 45.8849 52.1957C45.5583 52.2051 45.2477 52.3391 45.0171 52.57C44.7865 52.8008 44.6535 53.111 44.6454 53.4368C44.6373 53.7625 44.7548 54.0789 44.9737 54.3208L70.5337 79.7255C71.2983 80.4903 72.3126 80.9121 73.3932 80.9121C74.4738 80.9121 75.4882 80.4903 76.268 79.7077L79.91 75.914C80.2823 75.5477 80.5779 75.1112 80.7796 74.63C80.9813 74.1487 81.085 73.6323 81.0848 73.1108C81.0845 72.5893 80.9803 72.073 80.7782 71.5919C80.5761 71.1109 80.2801 70.6747 79.9075 70.3086L54.4214 44.8989C54.181 44.6674 53.8592 44.5394 53.525 44.5423C53.1909 44.5452 52.8713 44.6788 52.635 44.9144C52.3988 45.1499 52.2648 45.4686 52.2619 45.8017C52.2589 46.1348 52.3874 46.4557 52.6195 46.6953L78.103 72.1026C78.6867 72.687 78.6867 73.5357 78.0852 74.1404L74.4432 77.9341Z"
            fill="white" />
        <path
            d="M14.918 8.05472L7.27218 0.431796C7.03321 0.193616 6.70915 0.0598145 6.37125 0.0598145C6.03335 0.0598145 5.70928 0.193616 5.47031 0.431796L0.373099 5.51375C0.134204 5.752 0 6.0751 0 6.41198C0 6.74887 0.134204 7.07197 0.373099 7.31022L8.01892 14.9331C8.25821 15.1704 8.58184 15.3038 8.91933 15.3043C9.25682 15.3048 9.58083 15.1723 9.82079 14.9357L11.4672 13.2917L30.9538 32.72C31.0712 32.8415 31.2117 32.9385 31.3671 33.0052C31.5224 33.072 31.6896 33.1073 31.8588 33.109C32.028 33.1107 32.1958 33.0788 32.3525 33.0151C32.5092 32.9515 32.6516 32.8574 32.7714 32.7382C32.8912 32.6191 32.9861 32.4774 33.0504 32.3214C33.1146 32.1653 33.1471 31.9981 33.1459 31.8294C33.1447 31.6607 33.1098 31.4939 33.0432 31.3388C32.9767 31.1838 32.8798 31.0434 32.7583 30.9261L13.2691 11.4952L14.9155 9.85373C15.0343 9.73589 15.1286 9.59582 15.1931 9.44156C15.2576 9.2873 15.2909 9.12187 15.2911 8.95476C15.2913 8.78764 15.2585 8.62213 15.1945 8.46768C15.1305 8.31324 15.0365 8.17291 14.918 8.05472ZM8.91858 12.2397L3.07462 6.41325L6.36997 3.12777L12.2139 8.95423L8.91858 12.2397Z"
            fill="white" />
    </symbol>

    <symbol xmlns="http://www.w3.org/2000/svg" width="81" height="81" viewBox="0 0 81 81"
        fill="none" id="calendar-circle">
        <g clip-path="url(#clip0_542_4)">
            <path
                d="M40.5 0C18.1491 0 0 18.1491 0 40.5C0 62.8509 18.1491 81 40.5 81C62.8509 81 81 62.8509 81 40.5C81 18.1491 62.8509 0 40.5 0ZM40.5 2.45278C61.5271 2.45278 78.5472 19.4729 78.5472 40.5C78.5472 61.5271 61.5271 78.5472 40.5 78.5472C19.4729 78.5472 2.45278 61.5271 2.45278 40.5C2.45278 19.4729 19.4729 2.45278 40.5 2.45278ZM24.0469 22.7812C23.7112 22.7812 23.3893 22.9146 23.1519 23.1519C22.9146 23.3893 22.7812 23.7112 22.7812 24.0469V54.4219C22.7812 54.7575 22.9146 55.0795 23.1519 55.3168C23.3893 55.5542 23.7112 55.6875 24.0469 55.6875H38.5231C38.243 54.8675 38.057 54.0183 37.9688 53.1562H25.3125V30.375H53.1562V37.9688C54.027 38.07 54.8876 38.2345 55.6875 38.5231V24.0469C55.6875 23.7112 55.5542 23.3893 55.3168 23.1519C55.0795 22.9146 54.7575 22.7812 54.4219 22.7812H24.0469ZM25.3125 25.3125H53.1562V27.8438H25.3125V25.3125ZM27.8438 32.9062V35.4375H30.375V32.9062H27.8438ZM32.9062 32.9062V35.4375H35.4375V32.9062H32.9062ZM37.9688 32.9062V35.4375H40.5V32.9062H37.9688ZM43.0312 32.9062V35.4375H45.5625V32.9062H43.0312ZM48.0938 32.9062V35.4375H50.625V32.9062H48.0938ZM27.8438 37.9688V40.5H30.375V37.9688H27.8438ZM32.9062 37.9688V40.5H35.4375V37.9688H32.9062ZM37.9688 37.9688V40.5H40.5V37.9688H37.9688ZM43.0312 37.9688V40.5H44.3753C44.7829 40.2292 45.1271 39.9381 45.5625 39.7077V37.9688H43.0312ZM51.8906 40.5C45.6131 40.5 40.5 45.6131 40.5 51.8906C40.5 58.1681 45.6131 63.2812 51.8906 63.2812C58.1681 63.2812 63.2812 58.1681 63.2812 51.8906C63.2812 45.6131 58.1681 40.5 51.8906 40.5ZM51.8906 42.5579C53.1166 42.5569 54.3308 42.7976 55.4637 43.2662C56.5966 43.7349 57.6259 44.4222 58.493 45.289C59.36 46.1558 60.0476 47.185 60.5166 48.3178C60.9855 49.4505 61.2265 50.6646 61.2259 51.8906C61.2269 53.1168 60.9861 54.3312 60.5173 55.4642C60.0485 56.5973 59.3609 57.6268 58.4939 58.4939C57.6268 59.3609 56.5973 60.0485 55.4642 60.5173C54.3312 60.9861 53.1168 61.2269 51.8906 61.2259C50.6644 61.2269 49.4501 60.9861 48.317 60.5173C47.1839 60.0485 46.1544 59.3609 45.2874 58.4939C44.4203 57.6268 43.7327 56.5973 43.2639 55.4642C42.7952 54.3312 42.5544 53.1168 42.5554 51.8906C42.5544 50.6644 42.7952 49.4501 43.2639 48.317C43.7327 47.1839 44.4203 46.1544 45.2874 45.2874C46.1544 44.4203 47.1839 43.7327 48.317 43.2639C49.4501 42.7952 50.6644 42.5569 51.8906 42.5579ZM27.8438 43.0312V45.5625H30.375V43.0312H27.8438ZM32.9062 43.0312V45.5625H35.4375V43.0312H32.9062ZM37.9688 43.0312V45.5625H39.7103C39.9381 45.1271 40.2292 44.7829 40.5 44.3753V43.0312H37.9688ZM51.6527 45.5625C51.3597 45.6185 51.0959 45.7762 50.9079 46.0078C50.7199 46.2394 50.6197 46.5299 50.625 46.8281V51.8906C50.625 52.2263 50.7583 52.5482 50.9957 52.7856C51.233 53.0229 51.555 53.1562 51.8906 53.1562H56.3988C56.7344 53.1562 57.0564 53.0229 57.2937 52.7856C57.5311 52.5482 57.6644 52.2263 57.6644 51.8906C57.6644 51.555 57.5311 51.233 57.2937 50.9957C57.0564 50.7583 56.7344 50.625 56.3988 50.625H53.1562V46.8281C53.1562 46.4925 53.0229 46.1705 52.7856 45.9332C52.5482 45.6958 52.2263 45.5625 51.8906 45.5625C51.8115 45.555 51.7318 45.555 51.6527 45.5625ZM27.8438 48.0938V50.625H30.375V48.0938H27.8438ZM32.9062 48.0938V50.625H35.4375V48.0938H32.9062Z"
                fill="white" />
        </g>
        <defs>
            <clipPath id="clip0_542_4">
                <rect width="81" height="81" fill="white" />
            </clipPath>
        </defs>
    </symbol>
    <symbol xmlns="http://www.w3.org/2000/svg" viewBox="0 0 50 50"
        fill="none" id="button-down-arrow">
        <circle cx="25" cy="25" r="25" fill="white" />
        <path d="M23.55 12V28.375H17L25.2858 38.2L33.375 28.375H26.825V12H23.55Z" fill="#181652" />
    </symbol>
    <symbol xmlns="http://www.w3.org/2000/svg" width="41" height="45" viewBox="0 0 41 45"
        fill="none" id="engg-report">
        <path
            d="M40.8158 33.5219C40.4637 32.5604 39.769 31.9005 38.716 31.8563C38.1169 31.8361 37.5205 31.9465 36.9683 32.1799C33.7066 33.5772 30.467 35.0217 27.2194 36.4552C27.0316 36.5373 26.8421 36.6131 26.629 36.7078C26.6179 36.5847 26.6085 36.5279 26.6069 36.4726C26.5485 33.9782 25.1986 32.5415 22.7216 32.2857C20.6771 32.0726 18.6373 31.8121 16.5928 31.5879C15.2808 31.4442 14.1615 30.8459 13.0595 30.1812C11.7604 29.3777 10.3211 28.827 8.81739 28.5583C8.05643 28.4272 7.28599 28.3562 6.51082 28.2567C6.51082 28.2078 6.49503 28.1525 6.49187 28.0988C6.42083 26.8232 5.72775 26.1585 4.45685 26.1538C3.62168 26.1538 2.78652 26.1538 1.95135 26.1538C0.746754 26.1633 0.00631505 26.8848 0.00473629 28.0846C-0.00157876 32.5462 -0.00157876 37.0073 0.00473629 41.4678C0.00473629 42.6787 0.760963 43.4113 1.98608 43.4207C2.74863 43.4207 3.51275 43.3923 4.27371 43.4207C5.66618 43.4902 6.45082 42.6456 6.50766 41.5531C6.50766 41.531 6.53924 41.5104 6.55818 41.4852C6.67501 41.5262 6.78236 41.5657 6.8913 41.602C9.41732 42.4498 11.8281 43.6402 14.452 44.207H25.3313C26.4993 43.9803 27.6204 43.557 28.6467 42.955C32.3978 40.8289 36.1479 38.7013 39.8969 36.5721C40.0767 36.4773 40.2374 36.3499 40.3705 36.1963C40.6806 35.833 40.8859 35.3921 40.9643 34.9209C41.0427 34.4497 40.9914 33.9661 40.8158 33.5219ZM38.986 35.6106C35.3722 37.663 31.7521 39.6917 28.1509 41.7583C26.7724 42.574 25.191 42.9824 23.5899 42.9361C20.8712 42.865 18.151 42.9108 15.4324 42.9203C14.5697 42.9231 13.7136 42.7684 12.9064 42.464C10.9029 41.7157 8.89949 40.9626 6.88814 40.2301C6.57239 40.1164 6.48398 39.9664 6.48714 39.6412C6.50608 38.0861 6.49819 36.5326 6.48714 34.9791C6.48714 34.8086 6.50766 34.5812 6.41451 34.4818C6.25302 34.2839 6.03126 34.1441 5.78301 34.0839C5.47673 34.0492 5.25412 34.2797 5.2115 34.6112C5.1978 34.7545 5.19358 34.8985 5.19887 35.0422V41.302C5.19887 41.9604 5.04099 42.1214 4.38896 42.123C3.61379 42.123 2.83546 42.123 2.05871 42.123C1.46983 42.123 1.3009 41.9651 1.3009 41.392C1.3009 36.9894 1.3009 32.5862 1.3009 28.1825C1.3009 27.5842 1.44141 27.4484 2.04134 27.4468C2.8623 27.4468 3.68273 27.4468 4.50263 27.4468C5.02204 27.4468 5.19413 27.6221 5.19729 28.1525C5.19729 29.275 5.19729 30.3975 5.19729 31.5184C5.19729 32.06 5.44042 32.3568 5.85563 32.3441C6.27085 32.3315 6.48714 32.0284 6.48714 31.5248C6.48714 30.9075 6.48714 30.2917 6.48714 29.5481C7.36177 29.6744 8.19851 29.755 9.01316 29.9255C10.3236 30.2088 11.5699 30.7335 12.6885 31.4727C14.1283 32.401 15.704 32.8367 17.3964 32.9898C19.2562 33.1572 21.1128 33.3861 22.9678 33.6214C24.4093 33.8013 25.3155 34.8844 25.306 36.3526C25.306 36.5673 25.306 36.7805 25.306 37.0725H18.0437C17.9142 37.0725 17.7848 37.0725 17.6553 37.0725C17.2322 37.1088 16.9512 37.3883 16.9733 37.7577C16.9954 38.1271 17.2638 38.3576 17.6821 38.3592C20.4187 38.3592 23.152 38.3592 25.8822 38.3592C26.0823 38.3445 26.2775 38.2909 26.4569 38.2013C30.107 36.6005 33.7524 34.9986 37.393 33.3956C37.6271 33.2869 37.8729 33.2053 38.1255 33.1525C38.8439 33.0214 39.3886 33.3435 39.6206 34.0034C39.7317 34.3024 39.7283 34.6319 39.6112 34.9286C39.494 35.2253 39.2714 35.4682 38.986 35.6106Z"
            fill="#FFFAFA" />
        <path
            d="M35.1827 14.6872C35.1827 14.182 35.1827 13.6784 35.1827 13.1748C35.1701 12.0823 34.5512 11.3229 33.4793 11.1098C33.3802 11.0995 33.287 11.0582 33.2127 10.9919C33.1385 10.9256 33.087 10.8376 33.0656 10.7403C32.7688 9.97831 32.4531 9.22418 32.1184 8.47796C32.067 8.39723 32.0429 8.3022 32.0494 8.20676C32.0559 8.11132 32.0928 8.02047 32.1547 7.94749C32.4356 7.56504 32.5691 7.09411 32.5309 6.62113C32.4926 6.14815 32.285 5.70483 31.9463 5.37253C31.2169 4.62209 30.4717 3.88534 29.7107 3.16226C29.3794 2.82366 28.9353 2.61845 28.4627 2.58557C27.9901 2.55268 27.5219 2.69441 27.1468 2.98386C27.0713 3.04434 26.9791 3.08023 26.8826 3.08672C26.786 3.09322 26.6898 3.06999 26.6069 3.02017C25.857 2.69337 25.1023 2.3792 24.3382 2.0887C24.2428 2.06683 24.1565 2.01592 24.0912 1.94298C24.0259 1.87003 23.9848 1.77864 23.9735 1.68138C23.7667 0.636242 23.0105 0.00473629 21.9385 0.00473629C20.9449 -0.00157876 19.9519 -0.00157876 18.9594 0.00473629C17.8984 0.0173664 17.1264 0.647293 16.9275 1.69401C16.8786 1.95293 16.7523 2.03503 16.5312 2.12186C15.7829 2.41235 15.0409 2.71863 14.3099 3.05333C14.2222 3.10605 14.1201 3.12985 14.0181 3.12135C13.9161 3.11285 13.8194 3.07248 13.7416 3.00596C13.3637 2.73665 12.9026 2.60997 12.4401 2.64841C11.9777 2.68685 11.5438 2.88793 11.2155 3.21594C10.4588 3.95059 9.71571 4.69787 8.98633 5.45778C8.64623 5.78765 8.43882 6.23072 8.40333 6.70318C8.36784 7.17563 8.50672 7.64472 8.79372 8.02169C8.95159 8.24272 8.91055 8.38639 8.8174 8.6011C8.49533 9.33786 8.19063 10.0815 7.90329 10.8319C7.88238 10.926 7.83323 11.0115 7.76242 11.077C7.69161 11.1424 7.60251 11.1847 7.50702 11.1982C6.43347 11.4129 5.81775 12.1723 5.81775 13.2742C5.81775 14.2373 5.81775 15.2014 5.81775 16.1665C5.82722 17.2875 6.43662 18.0153 7.53544 18.2789C7.6145 18.306 7.68728 18.3487 7.7494 18.4046C7.81153 18.4605 7.86172 18.5284 7.89698 18.6041C8.23168 19.3509 8.52848 20.115 8.86002 20.8618C8.91664 20.9475 8.94387 21.0492 8.93761 21.1518C8.93134 21.2543 8.89192 21.352 8.82529 21.4301C8.55149 21.8053 8.42061 22.2659 8.45621 22.729C8.49181 23.1921 8.69155 23.6272 9.01948 23.9561C9.74992 24.7108 10.4951 25.4512 11.255 26.1775C11.5872 26.5147 12.0297 26.7212 12.5016 26.7592C12.9735 26.7972 13.4433 26.6641 13.8252 26.3843C13.8991 26.3213 13.9904 26.2826 14.087 26.2733C14.1836 26.264 14.2807 26.2845 14.3652 26.3322C15.1261 26.6669 15.906 26.9637 16.667 27.2952C16.7413 27.3327 16.8074 27.3845 16.8616 27.4477C16.9158 27.5108 16.957 27.584 16.9828 27.6631C17.2338 28.7335 17.9711 29.3492 19.0699 29.3539C20.0329 29.3539 20.997 29.3513 21.9622 29.346C23.0831 29.346 23.8188 28.7287 24.0809 27.6347C24.1065 27.5559 24.1476 27.483 24.2019 27.4204C24.2561 27.3577 24.3223 27.3066 24.3966 27.27C25.1544 26.9305 25.9328 26.6385 26.689 26.2864C26.7717 26.2373 26.8679 26.2159 26.9636 26.2253C27.0593 26.2346 27.1495 26.2743 27.221 26.3385C27.5902 26.6096 28.0429 26.7424 28.5001 26.7135C28.9572 26.6846 29.3896 26.496 29.7218 26.1806C30.5143 25.427 31.2848 24.6513 32.0331 23.8535C32.3537 23.5249 32.546 23.0922 32.5749 22.634C32.6039 22.1758 32.4677 21.7223 32.191 21.3559C32.0236 21.1223 32.0678 20.9675 32.1689 20.7402C32.4846 20.0313 32.7846 19.3193 33.0514 18.5899C33.1461 18.331 33.2472 18.2031 33.5329 18.1479C33.991 18.0676 34.4054 17.8268 34.702 17.4686C34.9985 17.1104 35.1578 16.6583 35.1512 16.1934C35.1827 15.6913 35.1827 15.1861 35.1827 14.6872ZM33.885 16.0813C33.885 16.6117 33.6908 16.8549 33.1572 16.9086C32.4957 16.9733 32.1436 17.3364 31.9242 17.9379C31.6195 18.7731 31.2927 19.5988 30.9138 20.4039C30.6501 20.9754 30.658 21.4696 31.0543 21.9685C31.4095 22.4169 31.3921 22.701 30.999 23.1036C30.3359 23.7825 29.6671 24.4561 28.9924 25.1244C28.6056 25.5049 28.2772 25.5223 27.851 25.1797C27.3773 24.8024 26.9037 24.7818 26.3638 25.0218C25.5002 25.407 24.6271 25.7701 23.7462 26.1159C23.1968 26.3322 22.8747 26.689 22.8242 27.2905C22.78 27.8225 22.5195 28.0546 21.9795 28.0594C21.0165 28.0688 20.0529 28.0688 19.0888 28.0594C18.6152 28.0594 18.3405 27.8604 18.2994 27.3836C18.2316 26.6195 17.7911 26.2785 17.1059 26.048C16.3317 25.7854 15.5755 25.4727 14.842 25.1118C14.2468 24.8229 13.7368 24.815 13.2048 25.2428C12.7975 25.5744 12.4785 25.5475 12.0996 25.1781C11.4081 24.5056 10.724 23.8267 10.0473 23.1415C9.6873 22.7768 9.67467 22.4405 10.0046 22.0364C10.3946 21.5627 10.4088 21.067 10.1625 20.5113C9.78465 19.6766 9.43154 18.8299 9.10315 17.9711C8.87897 17.3917 8.53164 17.0333 7.88277 16.9938C7.39809 16.9638 7.14549 16.6954 7.13759 16.2155C7.12339 15.2224 7.12339 14.2294 7.13759 13.2363C7.13759 12.7627 7.38072 12.4927 7.87172 12.447C8.51428 12.3917 8.8695 12.0412 9.08579 11.4555C9.40154 10.6093 9.73624 9.76938 10.1136 8.95001C10.3756 8.37849 10.3677 7.88118 9.96516 7.38861C9.62415 6.96866 9.63362 6.6608 9.99989 6.28348C10.6614 5.59198 11.3434 4.8989 12.0491 4.21214C12.2211 4.08501 12.4076 3.979 12.6049 3.89639C12.7966 3.98134 12.9809 4.08221 13.1558 4.19793C13.6295 4.5642 14.1031 4.58157 14.6478 4.3416C15.4987 3.96427 16.3607 3.60747 17.2275 3.26804C17.7895 3.04701 18.1305 2.69179 18.1747 2.06818C18.2142 1.55666 18.4778 1.31669 18.9862 1.31037C19.965 1.3009 20.9428 1.3009 21.9196 1.31037C22.409 1.31037 22.6821 1.55035 22.7168 2.03345C22.7642 2.69968 23.1305 3.05017 23.7351 3.26804C24.5561 3.56643 25.3723 3.89007 26.1617 4.26108C26.76 4.54368 27.2763 4.54999 27.8004 4.12373C28.233 3.77166 28.4983 3.79535 28.8945 4.18372C29.5734 4.84785 30.2475 5.51672 30.9169 6.19033C31.3116 6.58976 31.3258 6.91024 30.9706 7.36493C30.6154 7.81961 30.5885 8.29166 30.8222 8.81739C31.2106 9.69413 31.5789 10.5798 31.9273 11.4744C32.1499 12.0033 32.4988 12.3191 33.0814 12.3617C33.664 12.4043 33.8708 12.6617 33.8708 13.23C33.8792 14.1794 33.8813 15.1288 33.8771 16.0781L33.885 16.0813Z"
            fill="#FFFAFA" />
        <path
            d="M28.6277 15.4229C28.312 15.5334 28.2236 15.7845 28.1541 16.086C27.6031 18.7462 26.1017 20.6865 23.6294 21.8011C21.577 22.7247 19.4835 22.69 17.3538 21.8138C17.8054 21.3097 18.3523 20.9 18.9631 20.6084C19.5739 20.3169 20.2364 20.1492 20.9123 20.115C24.3966 19.8829 26.8232 16.6512 26.0401 13.3058C25.9296 12.8322 25.7244 12.477 25.2413 12.3317C24.7582 12.1865 24.3824 12.4028 24.0509 12.739C23.2805 13.5158 22.5069 14.2889 21.7301 15.0582C21.378 15.4071 21.1791 15.4024 20.8207 15.0582C20.595 14.8372 20.3724 14.6115 20.1498 14.3873C19.7567 13.9894 19.7551 13.811 20.1498 13.4163C20.9391 12.6269 21.7475 11.8376 22.5274 11.0324C23.1984 10.3393 22.9221 9.40785 21.9922 9.16788C21.2798 8.98671 20.5385 8.94881 19.8113 9.05637C19.0841 9.16393 18.3855 9.41481 17.7561 9.79445C17.1266 10.1741 16.5788 10.6749 16.1444 11.268C15.71 11.861 15.3977 12.5343 15.2256 13.249C15.0946 13.8063 15.0677 14.3873 14.9683 14.9525C14.7736 16.0611 14.2101 17.0715 13.369 17.8195C12.7779 16.485 12.5775 15.0102 12.7912 13.5663C13.0327 11.862 13.8325 10.286 15.0655 9.08486C16.2985 7.88378 17.8951 7.1255 19.6051 6.92875C21.3151 6.73201 23.0421 7.10792 24.5157 7.99761C25.9892 8.88731 27.1261 10.2406 27.7484 11.8455C27.9062 12.2607 28.0041 12.698 28.132 13.1243C28.2709 13.5884 28.6735 13.7984 29.0603 13.5979C29.4471 13.3974 29.4424 13.0311 29.3587 12.6506C28.2725 7.85592 23.5725 4.82786 18.6831 5.77354C13.9468 6.68922 10.6819 11.3576 11.5487 16.1523C12.2244 19.8987 14.4678 22.4247 18.1447 23.4146C21.7885 24.3982 24.9334 23.3357 27.4452 20.5081C28.5298 19.2877 29.1629 17.8242 29.4518 16.2265C29.5545 15.674 29.1203 15.2524 28.6277 15.4229ZM16.3355 20.9865C16.2865 21.037 16.2281 21.0781 16.0829 21.1996C15.3851 20.5071 14.6883 19.8156 13.9926 19.1251L13.9215 18.9088C14.1047 18.8247 14.277 18.7187 14.4346 18.5931C15.5838 17.4612 16.269 15.9411 16.356 14.3304C16.4201 13.2039 16.9255 12.148 17.7627 11.3915C18.5998 10.635 19.7014 10.2388 20.8286 10.2888C20.9865 10.2967 21.1318 10.3267 21.3733 10.3598C20.6534 11.0798 19.9935 11.7381 19.3367 12.3964C18.2821 13.4479 18.2868 14.3415 19.3462 15.3961C19.5483 15.5998 19.7503 15.805 19.9556 16.0071C20.786 16.8233 21.7901 16.8233 22.6253 16.0071C23.2568 15.3914 23.8662 14.7677 24.4882 14.1473C24.5766 14.0589 24.6761 13.9894 24.7692 13.8963L24.9145 13.9278C24.8687 14.4709 24.8829 15.033 24.7566 15.5587C24.563 16.4287 24.0942 17.2131 23.4196 17.7955C22.745 18.3779 21.9007 18.7274 21.0118 18.792C19.152 18.9309 17.6001 19.6288 16.3355 20.9865Z"
            fill="#FFFAFA" />
    </symbol>
    <symbol xmlns="http://www.w3.org/2000/svg" width="56" height="46" viewBox="0 0 56 46"
        fill="none" id="basic">
        <path
            d="M55.9434 23.8962C55.4142 22.0362 54.8818 20.1749 54.3462 18.3123C54.1544 17.6316 53.7709 17.4207 53.0902 17.6086C52.3711 17.8004 51.6482 17.9921 50.9387 18.228C50.6473 18.32 50.5284 18.228 50.3635 17.9998C49.8362 17.2558 49.2858 16.5291 48.724 15.8138C48.467 15.4878 48.1602 15.2021 47.8784 14.8992C48.2791 14.1705 48.6703 13.4591 49.0653 12.7554C49.5063 11.9692 49.4028 11.6049 48.6051 11.1581C47.0021 10.2633 45.3977 9.36841 43.7921 8.47357C43.0903 8.09007 42.6992 8.19745 42.3003 8.90885C41.9015 9.62025 41.4777 10.3834 41.0616 11.1236C39.7355 10.785 38.3707 10.6226 37.0022 10.6404C36.8105 10.6404 36.7203 10.579 36.6667 10.3815C36.4653 9.63367 36.2448 8.89543 36.032 8.15143C35.8191 7.40743 35.4433 7.20993 34.7242 7.41894C32.8872 7.94178 31.0515 8.46846 29.2171 8.99897C28.5671 9.19073 28.3504 9.57423 28.5383 10.2396C28.7492 10.9836 28.9659 11.7238 29.1768 12.4678C29.265 12.7918 29.1577 12.9433 28.8221 12.9567C28.7336 12.9568 28.6452 12.9511 28.5575 12.9395C26.6821 12.7113 24.8087 12.4908 22.9372 12.2472C22.7334 12.2146 22.5475 12.1114 22.4118 11.9558C21.8902 11.313 21.2236 10.8029 20.4667 10.4675C19.7098 10.1321 18.8843 9.98082 18.0576 10.0261C17.231 10.0714 16.4269 10.3119 15.7112 10.728C14.9955 11.1441 14.3886 11.7239 13.9403 12.4198C12.132 15.2002 10.3449 17.996 8.55012 20.7879C8.11087 21.4284 7.83383 22.1661 7.74285 22.9374C7.68724 23.5663 7.73326 24.2049 7.66423 24.8338C7.46097 26.7207 7.2232 28.6075 6.99885 30.4943C6.97381 30.9435 6.81487 31.375 6.54248 31.733C4.62497 34.0609 2.74196 36.4175 0.843624 38.7607C0.349762 39.3306 0.0561178 40.0465 0.00758697 40.7991C-0.0406478 41.5136 0.142053 42.2247 0.528738 42.8276C0.915424 43.4304 1.48562 43.8929 2.1552 44.147C3.57992 44.6878 5.08133 44.2621 6.07269 43.0349C8.29317 40.2928 10.506 37.5482 12.7111 34.8011C13.1484 34.2703 13.4157 33.6202 13.4781 32.9353C13.5376 32.3792 13.6104 31.8251 13.6852 31.177C14.2125 31.8347 14.6708 32.4042 15.1272 32.9813C15.0582 33.106 14.9987 33.2172 14.9354 33.3303C13.6967 35.5221 12.4427 37.7119 11.2174 39.9151C10.9855 40.3316 10.8449 40.7927 10.805 41.2678C10.7652 41.7428 10.8269 42.2209 10.9862 42.6703C11.1455 43.1196 11.3986 43.5298 11.7288 43.8737C12.0589 44.2176 12.4585 44.4873 12.901 44.6648C14.55 45.334 16.2815 44.6648 17.223 43.0023C18.7571 40.3024 20.2847 37.6032 21.8059 34.9046C21.8868 34.741 22.0169 34.6069 22.1779 34.5211C22.663 34.3466 23.1693 34.2258 23.5834 34.1108C24.5192 35.2824 25.4204 36.4118 26.3427 37.5795C25.9592 38.2814 25.5297 39.0445 25.1079 39.8096C24.7915 40.3849 24.9161 40.8355 25.4799 41.1519C27.1724 42.0953 28.8662 43.0368 30.5613 43.9764C31.1365 44.2947 31.568 44.1681 31.894 43.5929C32.3292 42.8259 32.7492 42.0589 33.2017 41.2612C34.5466 41.6036 35.9289 41.7775 37.3167 41.7789C37.4126 41.7789 37.5545 41.94 37.589 42.0512C37.8172 42.7894 38.0243 43.5334 38.2352 44.2774C38.4269 44.9658 38.8104 45.1806 39.4892 44.9888C41.3301 44.4698 43.1683 43.9476 45.004 43.4222C45.702 43.2209 45.9129 42.8297 45.7154 42.1336C45.5179 41.4376 45.3319 40.6917 45.0961 39.9803C45.0701 39.9311 45.0551 39.8769 45.0522 39.8214C45.0492 39.766 45.0583 39.7105 45.079 39.6589C45.0996 39.6072 45.1311 39.5607 45.1715 39.5225C45.2119 39.4843 45.2601 39.4554 45.3127 39.4376C45.5822 39.2929 45.8388 39.1255 46.0797 38.9372C46.8793 38.2986 47.6674 37.6428 48.4901 36.9659C49.1804 37.3494 49.9224 37.7617 50.6588 38.1759C51.3222 38.5498 51.7402 38.4443 52.1084 37.7924C53.0173 36.1676 53.9237 34.5409 54.8275 32.9123C55.2685 32.1223 55.1669 31.7867 54.3864 31.3457C53.6597 30.9373 52.931 30.5327 52.2005 30.1242C52.5471 28.8013 52.7167 27.4382 52.7048 26.0706C52.7048 25.8405 52.8121 25.7753 53.0077 25.7216C53.7747 25.5126 54.5417 25.2902 55.3087 25.0601C55.8974 24.8837 56.1141 24.4887 55.9434 23.8962ZM12.1301 29.7407C12.0132 30.7225 11.9384 31.7062 11.7869 32.6841C11.7398 33.0569 11.6007 33.412 11.3823 33.7177C9.17906 36.4827 6.95283 39.2324 4.72851 41.9783C4.11299 42.7453 3.01617 42.8776 2.32203 42.3081C1.57803 41.6926 1.4975 40.6783 2.14753 39.8671C4.03437 37.5297 5.90011 35.1846 7.81571 32.8682C8.32781 32.2785 8.63405 31.5381 8.68818 30.7589C8.77447 29.6219 8.94129 28.4963 9.08319 27.2844C9.23276 27.4167 9.3248 27.503 9.41684 27.5816C9.99462 28.1005 10.6823 28.482 11.4283 28.6976C12.0016 28.8568 12.1992 29.1578 12.1301 29.7407ZM20.5864 33.6084C18.9475 36.5102 17.3081 39.4089 15.6679 42.3043C15.5005 42.6202 15.2375 42.875 14.9165 43.0324C14.5956 43.1898 14.233 43.2417 13.8808 43.1806C13.5269 43.1285 13.2012 42.9576 12.9572 42.6959C12.7133 42.4342 12.5656 42.0973 12.5386 41.7406C12.5178 41.3651 12.6021 40.9912 12.7821 40.661C14.0745 38.3101 15.4052 35.9803 16.7283 33.6506C17.1368 32.9296 17.1118 32.7455 16.5941 32.0878C15.4206 30.6228 14.2503 29.1565 13.0831 27.689C12.8732 27.4031 12.5653 27.2045 12.2183 27.131C9.70638 26.5749 8.59998 23.8712 9.98826 21.6929C11.7549 18.9432 13.5222 16.1948 15.2902 13.4476C15.6055 12.9198 16.052 12.4825 16.5862 12.1781C17.1204 11.8737 17.7242 11.7126 18.339 11.7103C19.5797 11.7602 20.5614 12.253 21.246 13.2731C21.3501 13.4448 21.4936 13.5892 21.6647 13.6942C21.8358 13.7993 22.0295 13.862 22.2297 13.8771C25.5029 14.2606 28.7684 14.6672 32.0378 15.066C32.5191 15.1235 32.8182 15.4495 32.7914 15.8483C32.7626 16.2875 32.4079 16.5789 31.9093 16.5233C30.5229 16.3718 29.1404 16.1935 27.7579 16.0305C26.1242 15.8388 24.4885 15.6317 22.8529 15.4552C22.1702 15.3785 21.9727 15.5665 21.7273 16.1954C21.504 16.7583 21.2293 17.2994 20.9066 17.8119C19.3918 20.1953 17.8539 22.5635 16.3276 24.9393C15.8635 25.6603 15.8789 25.8482 16.4196 26.5232C17.7478 28.185 19.0766 29.8468 20.4061 31.5087C20.9756 32.2124 21.0293 32.826 20.5864 33.6084ZM21.9708 22.2145C21.8308 23.4858 21.6793 24.7073 21.572 25.9172C21.5125 26.5999 21.5413 26.6037 20.8644 26.7935C20.3889 26.9258 19.9191 27.0773 19.4378 27.1885C19.3714 27.1985 19.3037 27.1937 19.2394 27.1745C19.1751 27.1552 19.1158 27.1221 19.0658 27.0773C18.7168 26.6746 18.3812 26.2605 18.0687 25.829C18.0345 25.7717 18.0142 25.7072 18.0092 25.6406C18.0042 25.5741 18.0147 25.5073 18.0399 25.4455C18.2163 25.1119 18.4368 24.7993 18.642 24.4868C19.2844 23.4858 19.9287 22.4887 20.594 21.4513C21.1003 21.7294 21.5758 21.994 21.9708 22.2145ZM51.838 24.2854C51.1305 24.4867 50.9521 24.7092 50.9886 25.4513C51.0657 27.0493 50.8712 28.6488 50.4133 30.1818C50.2503 30.734 50.398 31.0772 50.8985 31.3572L53.0672 32.5614C52.3634 33.8327 51.6616 35.0868 50.9406 36.3811L48.9157 35.2517C48.2178 34.8682 47.957 34.8969 47.4316 35.4818C46.3662 36.6604 45.1091 37.6504 43.7135 38.4098C43.1977 38.6898 43.0692 39.0023 43.2226 39.5757C43.4412 40.3619 43.6656 41.1519 43.8957 41.9649L39.7002 43.1672C39.5084 42.4884 39.3167 41.8249 39.1249 41.1653C39.0923 41.0522 39.0693 40.941 39.0367 40.8317C38.8584 40.2142 38.5765 40.0033 37.9341 40.0397C36.4488 40.1301 34.9588 39.9753 33.5238 39.5814C33.3935 39.545 33.2573 39.5028 33.1231 39.4664C32.6034 39.3245 32.2736 39.4491 32.0071 39.9208C31.6543 40.5364 31.3149 41.1576 30.9697 41.777C30.9103 41.8863 30.8412 41.9918 30.7588 42.126C29.4817 41.4146 28.2238 40.7166 26.9506 40.0052C27.3552 39.2842 27.7425 38.5901 28.1318 37.8959C28.452 37.3207 28.406 36.9909 27.917 36.5537C26.7113 35.4824 25.7022 34.2085 24.9353 32.7896C24.6477 32.2527 24.3255 32.1242 23.7368 32.2853L22.7167 32.5748C22.6715 32.5792 22.6259 32.5792 22.5806 32.5748C22.5576 30.8893 21.2076 29.9747 20.3946 28.7034C21.1194 28.4924 21.8308 28.2892 22.5441 28.0802C23.1194 27.9172 23.3112 27.6526 23.292 27.0677C23.1972 25.4199 23.3919 23.7683 23.8672 22.1876C24.0321 21.6584 23.8672 21.3113 23.3859 21.0371C22.78 20.6977 22.1722 20.3622 21.5259 20.0055C21.8884 19.4303 22.2469 18.8895 22.5902 18.3373C22.7819 18.0343 22.9296 17.7102 23.1232 17.415C23.1591 17.3608 23.2066 17.3155 23.2624 17.2823C23.3182 17.2491 23.3807 17.2289 23.4454 17.2232C25.3974 17.4456 27.3475 17.6872 29.2919 17.9212C30.1759 18.0286 31.0541 18.1532 31.9361 18.2356C33.1576 18.3526 34.3426 17.344 34.4749 16.1072C34.5557 15.4837 34.3919 14.8531 34.018 14.3477C33.6441 13.8422 33.0891 13.5011 32.4692 13.3958C32.0416 13.3345 31.614 13.2885 31.1691 13.229C30.9084 12.3105 30.6457 11.392 30.3734 10.4294L34.5708 9.22524C34.7913 9.99225 35.008 10.7267 35.2189 11.4649C35.4299 12.2031 35.6331 12.3719 36.4001 12.3374C37.9731 12.2633 39.5476 12.4499 41.0597 12.8896C41.7251 13.0814 42.0012 12.9625 42.3329 12.3604C42.7164 11.6739 43.0999 10.9894 43.5026 10.2684L47.3185 12.3891L46.1488 14.4984C45.8228 15.0871 45.8803 15.4073 46.3865 15.8637C47.5594 16.9159 48.5478 18.157 49.3108 19.5357C49.6559 20.1532 49.932 20.2701 50.6166 20.0784C51.2666 19.8962 51.9071 19.7102 52.5533 19.5281C52.6626 19.4993 52.77 19.482 52.9118 19.4533C53.3107 20.8492 53.7057 22.2183 54.1103 23.6315C53.3395 23.8578 52.5897 24.0745 51.838 24.2854Z"
            fill="white" />
        <path
            d="M23.2096 3.63401e-05C22.2083 -0.003759 21.2284 0.289812 20.3941 0.843539C19.5599 1.39727 18.9088 2.18621 18.5234 3.11039C18.138 4.03456 18.0357 5.05234 18.2294 6.03472C18.4232 7.01711 18.9042 7.91987 19.6115 8.62857C20.3189 9.33727 21.2207 9.82 22.2027 10.0156C23.1848 10.2112 24.2027 10.1108 25.1276 9.72717C26.0525 9.34355 26.8427 8.69397 27.398 7.86077C27.9533 7.02756 28.2488 6.04824 28.2469 5.04694C28.2449 3.7107 27.7138 2.42962 26.7698 1.48386C25.8259 0.538092 24.5458 0.0045971 23.2096 3.63401e-05ZM23.2096 8.39684C22.7689 8.39684 22.3325 8.31004 21.9254 8.14141C21.5183 7.97277 21.1484 7.72559 20.8368 7.41399C20.5252 7.10239 20.278 6.73247 20.1094 6.32534C19.9407 5.91821 19.8539 5.48186 19.8539 5.04119C19.8539 4.60051 19.9407 4.16416 20.1094 3.75703C20.278 3.34991 20.5252 2.97998 20.8368 2.66838C21.1484 2.35678 21.5183 2.1096 21.9254 1.94097C22.3325 1.77233 22.7689 1.68553 23.2096 1.68553C24.0995 1.68553 24.9531 2.03907 25.5824 2.66838C26.2117 3.29769 26.5652 4.15121 26.5652 5.04119C26.5652 5.93116 26.2117 6.78468 25.5824 7.41399C24.9531 8.0433 24.0995 8.39684 23.2096 8.39684Z"
            fill="white" />
        <path
            d="M37.1614 17.4034C35.4194 17.3969 33.7146 17.9077 32.263 18.871C30.8115 19.8343 29.6786 21.2068 29.0078 22.8146C28.337 24.4223 28.1586 26.193 28.495 27.9023C28.8315 29.6116 29.6677 31.1825 30.8978 32.4161C32.1279 33.6497 33.6965 34.4904 35.4048 34.8317C37.1131 35.1731 38.8843 34.9996 40.494 34.3334C42.1037 33.6672 43.4793 32.5382 44.4468 31.0894C45.4142 29.6406 45.9298 27.9373 45.9283 26.1952C45.9314 23.8668 45.0095 21.6326 43.3654 19.9839C41.7214 18.3352 39.4898 17.4069 37.1614 17.4034ZM37.1307 33.2919C35.7265 33.2919 34.3539 32.8752 33.1867 32.0946C32.0195 31.314 31.1101 30.2046 30.5738 28.9068C30.0375 27.6091 29.8984 26.1814 30.174 24.8045C30.4496 23.4276 31.1276 22.1635 32.1221 21.1722C33.1167 20.1809 34.383 19.507 35.7608 19.2358C37.1385 18.9647 38.5658 19.1085 39.8618 19.649C41.1578 20.1895 42.2643 21.1024 43.0411 22.2722C43.8179 23.442 44.2301 24.8159 44.2256 26.2201C44.2195 28.0978 43.4693 29.8965 42.1394 31.222C40.8095 32.5476 39.0084 33.2919 37.1307 33.2919Z"
            fill="white" />
    </symbol>
    <symbol xmlns="http://www.w3.org/2000/svg" width="52" height="52" viewBox="0 0 52 52"
        fill="none" id="standered">
        <path
            d="M10.4626 40.4453C10.545 40.4708 10.6275 40.4964 10.708 40.5258C10.6275 40.4964 10.545 40.4689 10.4626 40.4453ZM11.9878 34.0913C12.0055 34.0717 12.0113 34.0462 11.9878 34.0913V34.0913ZM11.9878 34.0913C12.0055 34.0717 12.0113 34.0462 11.9878 34.0913V34.0913Z"
            fill="white" />
        <path
            d="M51.9215 24.049C51.5587 19.0915 49.7669 14.3454 46.7629 10.3851C46.5097 10.0455 46.4606 9.81385 46.6648 9.41734C47.0775 8.59017 47.2093 7.65096 47.0402 6.74212C46.871 5.83328 46.4101 5.00439 45.7274 4.38112C45.0446 3.75786 44.1773 3.37422 43.2568 3.28838C42.3364 3.20254 41.413 3.41918 40.6268 3.90546C39.842 4.38726 39.2344 5.1102 38.8947 5.96613C38.555 6.82205 38.5016 7.76495 38.7424 8.65377C38.9786 9.55439 39.5079 10.3508 40.2469 10.9173C40.9858 11.4838 41.8922 11.7883 42.8233 11.7827C43.53 11.7689 44.2327 11.5432 44.9943 11.4038C45.0316 11.4529 45.1278 11.5707 45.2142 11.6943C50.3393 18.9571 51.4091 26.7814 48.1723 35.0747C44.7352 43.8745 35.849 49.9242 26.3936 49.9596C24.7114 49.9596 23.0272 49.6985 21.347 49.5297C20.6933 49.4649 20.1908 49.7476 20.0868 50.3247C19.9827 50.9018 20.3125 51.3729 20.9681 51.522C21.135 51.5593 21.2999 51.5927 21.4667 51.6163C22.4344 51.7517 23.4041 51.8832 24.3738 52.0089H27.6224C28.5921 51.8773 29.5638 51.7654 30.5276 51.6163C40.6759 49.9694 49.299 41.7192 51.3797 31.6416C51.627 30.452 51.7389 29.235 51.9156 28.0337C51.9332 27.9002 51.9705 27.7707 52 27.6411V24.5004C51.9648 24.3517 51.9385 24.2009 51.9215 24.049ZM42.8704 9.71963C42.2904 9.70809 41.7374 9.47255 41.3273 9.06236C40.9171 8.65218 40.6815 8.09917 40.67 7.5192C40.6846 6.95068 40.9201 6.4102 41.3265 6.01243C41.733 5.61466 42.2784 5.39089 42.8471 5.38859C43.4158 5.3863 43.9631 5.60565 44.3727 6.00012C44.7824 6.39459 45.0222 6.93315 45.0414 7.50153C45.0807 8.66162 44.06 9.71963 42.8704 9.72945V9.71963Z"
            fill="white" />
        <path
            d="M44.4859 22.9243C44.4859 22.2176 44.0933 21.8466 43.3729 21.8329C42.8665 21.8231 42.3561 21.8545 41.8517 21.8172C41.7646 21.8003 41.6826 21.764 41.6115 21.711C41.5405 21.658 41.4823 21.5896 41.4414 21.511C40.9755 20.4458 40.53 19.3707 40.1047 18.2859C40.0794 18.2029 40.0729 18.1153 40.0854 18.0294C40.098 17.9436 40.1293 17.8616 40.1773 17.7893C40.4835 17.4281 40.8388 17.1121 41.1705 16.7725C41.7594 16.1836 41.7594 15.6418 41.1823 15.0569C39.7729 13.6423 38.3596 12.2309 36.9424 10.8228C36.3712 10.2556 35.8353 10.2556 35.27 10.8228C34.8519 11.241 34.4593 11.6806 34.155 12.0006C32.8222 11.4863 31.6248 11.0348 30.4373 10.5539C30.3691 10.5075 30.3121 10.4464 30.2707 10.375C30.2292 10.3037 30.2043 10.224 30.1978 10.1417C30.1683 9.65098 30.1978 9.16025 30.184 8.66952C30.1723 7.91968 29.8013 7.53495 29.0632 7.53299C27.0139 7.52514 24.9659 7.52514 22.9193 7.53299C22.2107 7.53299 21.8357 7.92557 21.824 8.644C21.8141 9.13473 21.8122 9.62546 21.824 10.1162C21.8421 10.2216 21.819 10.3299 21.7595 10.4187C21.6999 10.5076 21.6084 10.57 21.504 10.5932C20.4185 11.0133 19.3448 11.4824 18.2711 11.9103C18.1872 11.9338 18.0992 11.9385 18.0133 11.9239C17.9274 11.9093 17.8458 11.8758 17.7745 11.8259C17.4015 11.5079 17.0737 11.1389 16.7223 10.7973C16.1649 10.2595 15.6329 10.2536 15.0813 10.7973C13.6523 12.2211 12.2279 13.6481 10.808 15.0785C10.2466 15.6418 10.2545 16.1797 10.8198 16.7528C11.236 17.1788 11.6717 17.5714 12.0486 17.9443C11.6756 18.7668 11.3282 19.499 11.0122 20.2429C10.7943 20.7513 10.7649 21.4953 10.3939 21.7406C9.9895 22.0095 9.28481 21.8211 8.71164 21.8309C7.8931 21.8447 7.5221 22.198 7.52014 23.0087C7.52014 25.0226 7.52014 27.0366 7.52014 29.0506C7.52014 29.82 7.90095 30.191 8.68219 30.2028C9.17292 30.2028 9.66365 30.1851 10.1544 30.2165C10.2348 30.2261 10.3119 30.2539 10.38 30.2977C10.448 30.3416 10.5051 30.4004 10.547 30.4697C11.0279 31.6475 11.4833 32.8468 11.9721 34.107C11.5795 34.4996 11.1869 34.8922 10.7943 35.2848C10.2349 35.858 10.229 36.386 10.7943 36.9592C12.1997 38.3764 13.6111 39.7891 15.0283 41.1971C15.6172 41.786 16.1492 41.7742 16.742 41.1834C17.1581 40.7672 17.5526 40.3315 17.8569 40.0056C19.1563 40.514 20.3125 40.9871 21.4824 41.415C21.5878 41.4351 21.6811 41.4956 21.7424 41.5837C21.8037 41.6717 21.828 41.7803 21.8102 41.8861C21.7984 42.3945 21.7984 42.9009 21.8102 43.4093C21.8259 44.0944 22.2028 44.4909 22.88 44.4948C24.945 44.5053 27.01 44.5053 29.075 44.4948C29.7797 44.4948 30.1566 44.1022 30.1703 43.3819C30.1801 42.8754 30.1546 42.367 30.184 41.8606C30.1922 41.7787 30.2188 41.6997 30.262 41.6296C30.3052 41.5596 30.3638 41.5003 30.4333 41.4562C31.6111 40.9753 32.8144 40.5219 34.1452 40.0056C34.4495 40.3334 34.8421 40.7771 35.2582 41.1952C35.8255 41.7644 36.3692 41.7683 36.9326 41.2089C38.3498 39.8008 39.7625 38.3888 41.1705 36.9729C41.7594 36.384 41.7594 35.8482 41.1705 35.2593C40.7544 34.8431 40.3206 34.4427 39.9928 34.1326C40.5012 32.8292 40.9526 31.6495 41.4316 30.4776C41.4701 30.4056 41.5247 30.3433 41.591 30.2957C41.6574 30.248 41.7338 30.2163 41.8144 30.2028C42.3365 30.1714 42.8626 30.2028 43.3847 30.1871C44.0658 30.1694 44.4643 29.7945 44.4682 29.1114C44.4905 27.0516 44.4964 24.9893 44.4859 22.9243ZM11.9878 34.0913C12.0054 34.0717 12.0113 34.0462 11.9878 34.0913V34.0913ZM42.4131 28.1555H40.9605C40.1596 28.1555 39.8456 28.3832 39.665 29.1467C39.2963 30.6953 38.6784 32.1737 37.8355 33.5241C37.4881 34.0835 37.5411 34.5055 38.0122 34.9825C38.3832 35.3515 38.7836 35.6892 39.1507 36.0229L36.01 39.1635C35.6842 38.8043 35.3485 38.4039 34.9795 38.0368C34.4829 37.5441 34.0765 37.5009 33.4759 37.8759C32.1395 38.7092 30.6753 39.3173 29.1417 39.6759C28.3762 39.8584 28.1387 40.1784 28.1348 40.9675C28.1348 41.4405 28.1348 41.9136 28.1348 42.4259H23.8654C23.8654 41.943 23.8654 41.4602 23.8654 40.9753C23.8654 40.1901 23.6181 39.8447 22.8682 39.6719C21.3375 39.3152 19.8759 38.7091 18.542 37.8778C17.9158 37.4852 17.5271 37.5461 16.9991 38.0623C16.6595 38.3921 16.3258 38.7278 15.9882 39.0595C15.9724 39.0745 15.9526 39.0847 15.9313 39.0889L12.8259 36.0229C13.1969 35.6931 13.5875 35.3731 13.9468 35.0198C14.465 34.5094 14.518 34.0894 14.143 33.4809C13.3115 32.1448 12.701 30.6832 12.3352 29.1526C12.1546 28.389 11.8405 28.1594 11.0436 28.1574H9.59299V23.8783C10.0759 23.8783 10.545 23.8783 11.0141 23.8783C11.8386 23.8783 12.1526 23.6407 12.3411 22.8516C12.7004 21.3356 13.303 19.8879 14.1254 18.5646C14.518 17.9267 14.4689 17.5164 13.9291 16.9805C13.5836 16.6351 13.2146 16.3112 12.8828 15.9991L16.0235 12.8584C16.3415 13.2196 16.6693 13.6259 17.0305 13.9949C17.4918 14.466 17.9354 14.521 18.4909 14.1755C19.8573 13.3254 21.353 12.7035 22.9193 12.3343C23.6122 12.1674 23.8595 11.8298 23.8674 11.0996C23.8674 10.6128 23.8674 10.1182 23.8674 9.60976H28.1406V10.9975C28.1406 11.8612 28.3664 12.1537 29.1889 12.3559C30.6879 12.7132 32.1195 13.3097 33.4288 14.1225C34.0883 14.5367 34.4946 14.4837 35.0521 13.9262C35.3858 13.5906 35.6999 13.2372 35.9923 12.9251L39.0879 16.0403C38.7817 16.323 38.3989 16.6586 38.0397 17.0218C37.545 17.5164 37.4881 17.9345 37.8552 18.5214C38.696 19.8727 39.3112 21.3518 39.6767 22.9007C39.8514 23.629 40.1793 23.8724 40.9389 23.8822C41.4257 23.8822 41.9204 23.8822 42.4209 23.8822L42.4131 28.1555Z"
            fill="white" />
        <path
            d="M30.9771 0.503699C27.0119 -0.299219 22.9121 -0.140367 19.0209 0.96695C15.1305 2.04897 11.5458 4.02287 8.55132 6.73199C5.55684 9.44112 3.23501 12.8109 1.77008 16.5739C0.305152 20.3369 -0.262547 24.3896 0.112037 28.4103C0.48662 32.431 1.79317 36.309 3.92801 39.7366C4.43837 40.567 5.0194 41.3561 5.56313 42.1589C4.21852 44.4143 5.04295 46.6874 6.49355 47.8376C6.94569 48.1881 7.46364 48.4443 8.01665 48.5908C8.56966 48.7373 9.14647 48.7712 9.71284 48.6905C10.2792 48.6099 10.8236 48.4162 11.3137 48.1212C11.8038 47.8261 12.2297 47.4355 12.566 46.9727C12.9023 46.5099 13.1422 45.9842 13.2714 45.4269C13.4007 44.8696 13.4167 44.2921 13.3184 43.7285C13.2202 43.1649 13.0097 42.6268 12.6996 42.146C12.3894 41.6653 11.9858 41.2518 11.5127 40.9301C11.4401 40.883 11.3675 40.8378 11.2909 40.7947C11.1522 40.7145 11.0078 40.6443 10.8591 40.5846C10.81 40.563 10.759 40.5434 10.7079 40.5257C10.6275 40.4963 10.545 40.4688 10.4626 40.4453L10.2663 40.3962C10.2035 40.3805 10.1387 40.3667 10.07 40.355C9.96793 40.3353 9.87371 40.3216 9.76182 40.3098C8.95963 40.2367 8.15115 40.3392 7.39257 40.6101C7.29835 40.6416 7.19628 40.6749 7.11187 40.7103H7.08832C7.06441 40.7027 7.04281 40.6892 7.02551 40.671C6.93914 40.567 6.85669 40.459 6.77818 40.351C3.03488 35.1886 1.43706 29.4431 2.23205 23.1185C3.14873 15.8381 6.73107 10.1122 12.8181 6.04111C18.2279 2.42344 24.203 1.33009 30.6081 2.48821C31.3265 2.61973 31.8526 2.3194 31.9821 1.71482C32.1117 1.11024 31.7112 0.646993 30.9771 0.503699ZM9.13957 42.2865C9.43628 42.2777 9.73174 42.3285 10.0085 42.4359C10.2852 42.5434 10.5375 42.7053 10.7505 42.912C10.9635 43.1188 11.1328 43.3662 11.2484 43.6396C11.3641 43.9129 11.4237 44.2068 11.4237 44.5036C11.4237 44.8004 11.3641 45.0943 11.2484 45.3676C11.1328 45.641 10.9635 45.8884 10.7505 46.0952C10.5375 46.3019 10.2852 46.4638 10.0085 46.5713C9.73174 46.6787 9.43628 46.7296 9.13957 46.7207C8.56297 46.7036 8.01574 46.4625 7.61396 46.0485C7.21217 45.6346 6.98745 45.0805 6.98745 44.5036C6.98745 43.9268 7.21217 43.3726 7.61396 42.9587C8.01574 42.5448 8.56297 42.3036 9.13957 42.2865Z"
            fill="white" />
        <path
            d="M36.3634 2.84939C36.3634 2.9841 36.3367 3.11748 36.2849 3.24183C36.2331 3.36618 36.1572 3.47906 36.0616 3.57394C35.966 3.66883 35.8526 3.74385 35.7278 3.79468C35.6031 3.84551 35.4695 3.87115 35.3348 3.87012C35.0705 3.85818 34.8206 3.74598 34.6361 3.55636C34.4516 3.36674 34.3463 3.11393 34.3416 2.84939C34.3418 2.71472 34.3689 2.58145 34.4215 2.45744C34.474 2.33343 34.5508 2.2212 34.6474 2.12735C34.744 2.0335 34.8584 1.95994 34.9839 1.911C35.1094 1.86207 35.2434 1.83875 35.378 1.84242C35.5088 1.8437 35.6382 1.87077 35.7585 1.9221C35.8789 1.97342 35.988 2.04799 36.0795 2.14152C36.1711 2.23506 36.2432 2.34572 36.2919 2.46719C36.3406 2.58866 36.3649 2.71854 36.3634 2.84939Z"
            fill="white" />
        <path
            d="M17.696 49.192C17.7015 49.3231 17.6806 49.4541 17.6347 49.577C17.5887 49.7 17.5185 49.8125 17.4283 49.9078C17.338 50.0032 17.2296 50.0795 17.1093 50.1322C16.9891 50.1849 16.8595 50.2129 16.7282 50.2146C16.5928 50.2202 16.4577 50.1983 16.331 50.1503C16.2042 50.1023 16.0885 50.0291 15.9908 49.9353C15.8931 49.8414 15.8153 49.7287 15.7623 49.604C15.7092 49.4793 15.6819 49.3451 15.682 49.2096C15.687 48.9443 15.7944 48.6911 15.9817 48.5031C16.169 48.3151 16.4217 48.2067 16.687 48.2007C16.9517 48.2001 17.206 48.3038 17.3948 48.4894C17.5837 48.6749 17.6918 48.9273 17.696 49.192Z"
            fill="white" />
        <path
            d="M26.0129 17.6086C24.3481 17.6067 22.7201 18.0987 21.3351 19.0224C19.9501 19.9461 18.8702 21.26 18.2323 22.7976C17.5943 24.3353 17.4268 26.0277 17.7511 27.6606C18.0755 29.2935 18.8769 30.7935 20.0541 31.9707C21.2313 33.1479 22.7313 33.9493 24.3642 34.2736C25.997 34.5979 27.6894 34.4305 29.2271 33.7925C30.7648 33.1545 32.0787 32.0747 33.0024 30.6897C33.9261 29.3046 34.4181 27.6767 34.4161 26.0119C34.4063 23.7863 33.5178 21.6545 31.944 20.0808C30.3702 18.507 28.2385 17.6185 26.0129 17.6086ZM26.0129 32.3855C24.7538 32.3875 23.5223 32.016 22.4744 31.318C21.4264 30.6201 20.609 29.627 20.1254 28.4645C19.6419 27.3019 19.514 26.0221 19.7578 24.7868C20.0017 23.5515 20.6065 22.4163 21.4955 21.5248C22.3846 20.6332 23.5182 20.0253 24.7527 19.778C25.9873 19.5307 27.2675 19.6551 28.4314 20.1354C29.5953 20.6157 30.5906 21.4304 31.2915 22.4764C31.9923 23.5224 32.3673 24.7528 32.3688 26.0119C32.3616 27.6974 31.69 29.312 30.4996 30.5053C29.3093 31.6985 27.6963 32.3742 26.0109 32.3855H26.0129Z"
            fill="white" />
    </symbol>
    <symbol xmlns="http://www.w3.org/2000/svg" width="46" height="52" viewBox="0 0 46 52"
        fill="none" id="premium">
        <path
            d="M28.8857 25.5181C28.3429 25.1994 27.8021 24.8826 27.2612 24.5522C27.143 24.488 27.0445 24.3927 26.9764 24.2766C26.9084 24.1605 26.8732 24.0281 26.8748 23.8935C26.8801 23.1453 26.831 22.3977 26.728 21.6566C26.7035 21.5103 26.721 21.36 26.7784 21.2233C26.8359 21.0865 26.9309 20.9688 27.0525 20.8839C27.5606 20.4976 28.0648 20.0861 28.5689 19.6882C28.6929 19.6077 28.7845 19.4861 28.8276 19.3448C28.8707 19.2034 28.8625 19.0514 28.8046 18.9155C28.5921 18.3514 28.3738 17.7893 28.1343 17.2349C27.9527 16.8099 27.7344 16.7133 27.2728 16.7616C26.6623 16.8273 26.05 16.8795 25.4666 16.9355C25.3174 16.9507 25.1668 16.9254 25.0308 16.8622C24.8948 16.7989 24.7784 16.7001 24.6939 16.5762C24.2897 15.9957 23.8374 15.4503 23.3417 14.9458C23.2285 14.8366 23.1489 14.6972 23.1123 14.5443C23.0756 14.3913 23.0835 14.231 23.135 14.0823C23.3127 13.4758 23.4827 12.8653 23.6566 12.2569C23.7066 12.1159 23.7064 11.9621 23.6561 11.8213C23.6057 11.6805 23.5083 11.5614 23.3803 11.4842C22.8723 11.1519 22.3565 10.8254 21.835 10.5183C21.7038 10.4197 21.5404 10.3742 21.3772 10.3906C21.214 10.4071 21.0629 10.4844 20.9541 10.6072C20.4673 11.0231 19.9908 11.443 19.5246 11.8666C19.4082 11.9708 19.2658 12.0416 19.1124 12.0715C18.9591 12.1015 18.8005 12.0894 18.6534 12.0366C17.9793 11.8454 17.307 11.6735 16.6271 11.5189C16.4686 11.4951 16.3196 11.4285 16.1961 11.3265C16.0725 11.2244 15.9791 11.0906 15.9258 10.9394C15.7134 10.3483 15.4931 9.75914 15.2749 9.16997C15.2371 9.02136 15.1469 8.89141 15.0209 8.80408C14.8948 8.71675 14.7415 8.67793 14.5891 8.69476C13.9645 8.72567 13.3418 8.76624 12.7211 8.81646C12.5756 8.82328 12.4369 8.87971 12.3279 8.97636C12.219 9.07301 12.1464 9.20405 12.1223 9.34768C11.9813 9.96583 11.8422 10.5821 11.7089 11.2021C11.6789 11.3631 11.6054 11.5128 11.4964 11.635C11.3875 11.7572 11.2472 11.8473 11.0907 11.8956C10.4649 12.1255 9.83706 12.3573 9.2305 12.6335C9.06326 12.7244 8.87315 12.7646 8.68344 12.7492C8.49372 12.7337 8.31261 12.6633 8.16226 12.5466C7.66774 12.1989 7.16163 11.8705 6.65745 11.5363C6.54258 11.4462 6.39957 11.3994 6.25362 11.4044C6.10768 11.4093 5.96816 11.4656 5.85965 11.5634C5.40248 11.9278 4.95174 12.3 4.50745 12.6799C4.13463 13.0006 4.09599 13.2304 4.2911 13.6767C4.53063 14.2253 4.76952 14.7745 5.00776 15.3244C5.07589 15.4638 5.10315 15.6195 5.0864 15.7737C5.06965 15.9279 5.00957 16.0742 4.91311 16.1956C4.48548 16.7599 4.10678 17.3596 3.78112 17.9883C3.71279 18.1239 3.60777 18.2376 3.478 18.3165C3.34823 18.3954 3.19893 18.4363 3.04707 18.4345L1.10376 18.5137C0.963424 18.513 0.826774 18.5586 0.715008 18.6435C0.603242 18.7283 0.522607 18.8477 0.48561 18.9831C0.323346 19.58 0.168809 20.1788 0.0297247 20.7796C-0.0610661 21.1775 0.0529057 21.3958 0.416069 21.6064C0.95695 21.927 1.49976 22.2458 2.03871 22.5722C2.16863 22.6499 2.27545 22.7609 2.34812 22.8937C2.4208 23.0265 2.45669 23.1762 2.4521 23.3275C2.47721 23.9611 2.4888 24.5967 2.56994 25.2226C2.63561 25.7151 2.52551 26.0725 2.11212 26.3661C1.63692 26.7042 1.18876 27.0809 0.730939 27.446C0.619368 27.5191 0.535531 27.6276 0.492813 27.754C0.450095 27.8804 0.45096 28.0175 0.495269 28.1433C0.730939 28.7782 0.983994 29.4067 1.25443 30.0287C1.30899 30.1477 1.40165 30.2452 1.51779 30.3057C1.63393 30.3663 1.76693 30.3864 1.89577 30.3629C2.53967 30.3049 3.18036 30.245 3.81783 30.1832C3.9788 30.1606 4.14288 30.185 4.29027 30.2536C4.43766 30.3221 4.56206 30.4319 4.64847 30.5696C5.04563 31.1385 5.49161 31.6717 5.98135 32.1632C6.09306 32.2694 6.17247 32.405 6.21041 32.5544C6.24835 32.7037 6.24327 32.8608 6.19577 33.0074C6.0232 33.6217 5.85064 34.236 5.67807 34.8502C5.62085 34.9928 5.61667 35.1511 5.6663 35.2964C5.71593 35.4418 5.81607 35.5645 5.94851 35.6422C6.46364 35.9809 6.98198 36.3087 7.50354 36.6255C7.83773 36.8187 8.08306 36.782 8.38441 36.5212C8.84995 36.1078 9.32129 35.6963 9.78684 35.2829C9.8983 35.1758 10.0379 35.1026 10.1895 35.0718C10.341 35.041 10.4981 35.0539 10.6426 35.1091C11.3114 35.341 11.9991 35.5142 12.6979 35.6268C12.8466 35.6456 12.9869 35.706 13.1027 35.801C13.2186 35.896 13.3052 36.0217 13.3528 36.1638C13.5788 36.7723 13.801 37.3827 14.0289 37.9893C14.0677 38.1352 14.1573 38.2625 14.2816 38.3482C14.4059 38.4339 14.5567 38.4724 14.7069 38.4568C15.3289 38.4259 15.9529 38.3834 16.573 38.3273C16.7238 38.3217 16.8678 38.2627 16.9793 38.1608C17.0907 38.0589 17.1623 37.9208 17.1815 37.771C17.3218 37.1554 17.4603 36.5379 17.5968 35.9185C17.6229 35.7633 17.693 35.6189 17.7988 35.5025C17.9047 35.386 18.0417 35.3025 18.1937 35.2617C18.8668 35.0575 19.521 34.7951 20.1486 34.4774C20.2861 34.4016 20.4425 34.3671 20.5991 34.3781C20.7557 34.3891 20.9058 34.445 21.0314 34.5392C21.5491 34.8889 22.0687 35.2327 22.5883 35.5785C22.9167 35.7987 23.1679 35.8026 23.4731 35.5592C23.9457 35.1728 24.4119 34.7813 24.8716 34.3847C24.9947 34.2931 25.08 34.1597 25.1117 34.0096C25.1433 33.8595 25.1191 33.703 25.0436 33.5695C24.8002 33.0016 24.5587 32.4317 24.3056 31.8657C24.2309 31.7111 24.201 31.5386 24.2195 31.3679C24.2379 31.1971 24.3039 31.035 24.4099 30.8999C24.7847 30.3474 25.144 29.7833 25.4801 29.2077C25.5571 29.0496 25.6772 28.9166 25.8266 28.824C25.976 28.7313 26.1485 28.6829 26.3243 28.6842C26.9444 28.6707 27.5625 28.6417 28.1807 28.6166C28.3288 28.6202 28.4737 28.5729 28.5911 28.4825C28.7085 28.3922 28.7914 28.2642 28.8259 28.1201C28.9843 27.5406 29.1369 26.9611 29.274 26.3661C29.3764 25.9682 29.2489 25.7306 28.8857 25.5181ZM14.45 33.5656C12.4719 33.5258 10.5501 32.9 8.92787 31.7674C7.30562 30.6348 6.05584 29.0464 5.33673 27.2032C4.61762 25.3601 4.4615 23.345 4.88814 21.413C5.31478 19.4811 6.30499 17.7191 7.73344 16.3502C9.1619 14.9813 10.9644 14.0669 12.9127 13.7229C14.8611 13.3788 16.8677 13.6205 18.6786 14.4174C20.4895 15.2143 22.0233 16.5305 23.0858 18.1994C24.1484 19.8684 24.6919 21.8151 24.6476 23.7931C24.5847 26.4391 23.4766 28.9526 21.5657 30.784C19.6547 32.6153 17.0963 33.6154 14.45 33.5656Z"
            fill="white" />
        <path
            d="M45.9892 31.1219C45.9323 29.8327 45.3899 28.6126 44.4708 27.7067C43.6781 26.8917 42.6418 26.3567 41.5184 26.1825C40.3949 26.0083 39.2453 26.2042 38.243 26.7408C36.4175 27.7067 35.4864 29.2791 35.3917 31.3422C35.3935 31.3874 35.3824 31.4322 35.3599 31.4715C35.3373 31.5108 35.3042 31.543 35.2642 31.5643C33.1922 32.8817 31.1214 34.2017 29.0518 35.5243L24.3288 38.5243C23.0577 39.3382 21.7783 40.1534 20.4905 40.9698C20.4486 41.0016 20.3985 41.0207 20.3461 41.0248C20.2937 41.0289 20.2412 41.0179 20.1949 40.993C19.4315 40.6591 18.6002 40.5097 17.7683 40.5568C16.9364 40.6039 16.1273 40.8462 15.4065 41.2642C14.6857 41.6821 14.0735 42.264 13.6193 42.9626C13.1652 43.6612 12.882 44.4569 12.7926 45.2853C12.7655 45.5171 12.7674 45.7528 12.7559 46.0136C12.8351 45.9653 12.8776 45.9402 12.9181 45.9131C13.8086 45.3471 14.6992 44.785 15.5839 44.2113C15.6511 44.1608 15.7302 44.1288 15.8136 44.1183C15.8969 44.1078 15.9815 44.1192 16.0591 44.1514C17.025 44.4972 18.014 44.8236 18.9934 45.1559C19.061 45.1791 19.117 45.1906 19.1054 45.293C18.9857 46.3767 18.8717 47.4585 18.7481 48.5422C18.7369 48.619 18.696 48.6884 18.6341 48.7353C18.325 48.942 18.0082 49.1371 17.6953 49.3361L15.6959 50.611C15.752 50.642 15.7867 50.6613 15.8215 50.6767C16.7846 51.1254 17.8602 51.2749 18.9091 51.1058C19.9581 50.9367 20.9322 50.4568 21.7055 49.7283C22.2226 49.2479 22.6372 48.668 22.9243 48.0233C23.2115 47.3786 23.3653 46.6825 23.3765 45.9769C23.3747 45.9219 23.3886 45.8676 23.4167 45.8204C23.4448 45.7732 23.4858 45.735 23.5349 45.7103C25.4962 44.465 27.455 43.2177 29.4111 41.9685C32.3731 40.0832 35.3351 38.1959 38.297 36.3067C38.3334 36.2789 38.377 36.2622 38.4226 36.2588C38.4683 36.2554 38.5139 36.2653 38.554 36.2874C39.6451 36.7812 40.8732 36.8835 42.0311 36.5771C43.2228 36.271 44.2704 35.5585 44.993 34.5626C45.7155 33.5667 46.0679 32.3498 45.9892 31.1219ZM43.2596 32.6673C42.6878 33.2005 42.1135 33.7317 41.5365 34.261C41.5034 34.2863 41.467 34.3071 41.4284 34.3228L39.7053 34.0601C39.4909 34.0272 39.2745 33.9983 39.062 33.9577C38.9984 33.9443 38.9424 33.907 38.9055 33.8534C38.5192 33.1876 38.1328 32.5186 37.7465 31.8463C37.7119 31.7803 37.7043 31.7034 37.7253 31.6319C38.0034 30.912 38.2874 30.1941 38.5771 29.478C38.6065 29.415 38.6591 29.3659 38.724 29.3409C39.4657 29.1078 40.2088 28.8805 40.9532 28.659C41.0122 28.6446 41.0745 28.6536 41.127 28.6841C41.7799 29.1245 42.429 29.5708 43.0781 30.017C43.1179 30.0494 43.1441 30.0956 43.1515 30.1464C43.2133 30.9358 43.2712 31.7259 43.3253 32.5166C43.3255 32.5721 43.304 32.6255 43.2654 32.6654L43.2596 32.6673Z"
            fill="white" />
        <path
            d="M39.402 19.5027C39.3189 19.8581 39.2301 20.2136 39.1316 20.5671C39.1142 20.6612 39.0625 20.7455 38.9864 20.8037C38.9104 20.8619 38.8155 20.8897 38.7201 20.8819C38.3338 20.8993 37.9474 20.9167 37.5611 20.9302C37.4668 20.9302 37.3742 20.9555 37.293 21.0034C37.2118 21.0513 37.145 21.1201 37.0994 21.2026C36.8676 21.5889 36.628 21.9579 36.3885 22.3327C36.3366 22.4056 36.3047 22.491 36.2962 22.5802C36.2878 22.6694 36.3029 22.7592 36.3402 22.8407C36.487 23.1865 36.6377 23.5303 36.7865 23.8761C36.817 23.922 36.838 23.9735 36.8484 24.0276C36.8588 24.0818 36.8583 24.1374 36.847 24.1914C36.8357 24.2453 36.8137 24.2964 36.7825 24.3418C36.7512 24.3872 36.7111 24.4259 36.6648 24.4556C36.3879 24.6951 36.1058 24.9282 35.8187 25.1549C35.7506 25.2144 35.6638 25.2481 35.5735 25.2502C35.4831 25.2523 35.3949 25.2227 35.3241 25.1665L34.3486 24.5155C34.2693 24.4598 34.1763 24.4268 34.0797 24.42C33.983 24.4132 33.8863 24.4328 33.8 24.4769C33.4137 24.6411 33.0157 24.8014 32.6178 24.9501C32.5205 24.9798 32.4332 25.0354 32.3651 25.111C32.2971 25.1865 32.2509 25.2792 32.2315 25.379C32.1529 25.7473 32.0705 26.1143 31.9842 26.4801C31.9754 26.5806 31.9289 26.6742 31.854 26.7419C31.7792 26.8096 31.6814 26.8465 31.5805 26.8451C31.225 26.8761 30.8696 26.9012 30.5142 26.9147C30.4611 26.925 30.4066 26.9248 30.3536 26.914C30.3007 26.9032 30.2504 26.882 30.2057 26.8516C30.161 26.8213 30.1227 26.7824 30.0931 26.7372C30.0635 26.692 30.0431 26.6413 30.0332 26.5882C29.9095 26.254 29.782 25.9218 29.6661 25.5857C29.6372 25.4748 29.5747 25.3756 29.4872 25.3016C29.3997 25.2277 29.2915 25.1825 29.1774 25.1723C29.0209 25.151 28.8664 25.1085 28.7099 25.0815C28.1594 24.9868 27.7325 24.643 27.2727 24.3668C27.1963 24.3182 27.1334 24.2512 27.0898 24.1718C27.0462 24.0924 27.0234 24.0033 27.0235 23.9128C27.0235 23.5786 27.0235 23.2425 27.0235 22.9025C28.9128 24.0615 30.887 24.2779 32.9423 23.3796C33.6729 23.0691 34.3327 22.6135 34.882 22.0404C35.4312 21.4673 35.8583 20.7886 36.1374 20.0455C36.7346 18.5507 36.7182 16.8808 36.0918 15.398C35.4655 13.9153 34.2796 12.7394 32.7917 12.1254C31.9974 11.7812 31.1375 11.6149 30.2722 11.6382C29.4069 11.6616 28.5572 11.8741 27.7827 12.2607C26.1427 13.0488 25.0783 14.3527 24.5297 16.0835C24.1163 15.6122 23.7087 15.1467 23.2876 14.6695C23.3748 14.6557 23.4594 14.629 23.5387 14.5903C23.6329 14.521 23.7146 14.436 23.7802 14.3392C24.0081 13.9915 24.2187 13.6322 24.4505 13.2864C24.5129 13.2048 24.5518 13.1077 24.563 13.0055C24.5743 12.9034 24.5574 12.8001 24.5142 12.7069C24.3616 12.3592 24.209 12.0095 24.0603 11.658C24.0123 11.5745 23.9973 11.4762 24.018 11.3823C24.0387 11.2883 24.0937 11.2055 24.1723 11.1499C24.4544 10.9065 24.7383 10.6689 25.0281 10.4371C25.0981 10.3673 25.1922 10.327 25.291 10.3245C25.3898 10.322 25.4858 10.3575 25.5593 10.4236C25.8761 10.6361 26.1948 10.8467 26.5097 11.0611C26.5912 11.1177 26.6864 11.1513 26.7854 11.1581C26.8844 11.1649 26.9834 11.1447 27.0718 11.0997C27.4582 10.9336 27.8529 10.7758 28.256 10.6264C28.3509 10.5979 28.4361 10.5439 28.5025 10.4704C28.5689 10.3968 28.6139 10.3065 28.6327 10.2092C28.7099 9.85181 28.7911 9.49445 28.8703 9.13708C28.8768 9.02331 28.9279 8.91669 29.0125 8.84037C29.0971 8.76406 29.2085 8.72421 29.3223 8.72949C29.6777 8.70051 30.0332 8.67926 30.3905 8.66574C30.4877 8.65188 30.5865 8.67551 30.6668 8.73184C30.7472 8.78816 30.8031 8.87296 30.8232 8.96902C30.9546 9.32252 31.0859 9.6741 31.2096 10.0276C31.2405 10.1244 31.2977 10.2106 31.3748 10.2768C31.4519 10.343 31.5458 10.3864 31.6461 10.4024C32.0595 10.4951 32.471 10.5955 32.8805 10.7153C32.9746 10.7478 33.0758 10.754 33.1731 10.7333C33.2705 10.7125 33.3604 10.6655 33.433 10.5975C33.7131 10.3463 33.997 10.0991 34.2791 9.85181C34.344 9.77413 34.436 9.72409 34.5365 9.71189C34.637 9.69969 34.7384 9.72624 34.82 9.78614C35.129 9.97931 35.4362 10.1725 35.7375 10.3657C35.8331 10.4121 35.9068 10.494 35.9429 10.5939C35.979 10.6939 35.9746 10.804 35.9307 10.9007C35.8302 11.2581 35.7375 11.6155 35.6255 11.9709C35.592 12.0711 35.5877 12.1788 35.613 12.2814C35.6383 12.384 35.6922 12.4773 35.7684 12.5504C36.0447 12.8595 36.3112 13.1802 36.5682 13.5163C36.6297 13.5968 36.7121 13.6589 36.8064 13.6961C36.9007 13.7332 37.0033 13.7438 37.1033 13.7268C37.4664 13.6863 37.8315 13.6534 38.1966 13.6225C38.3021 13.5959 38.4138 13.6118 38.5077 13.6667C38.6016 13.7216 38.6703 13.8112 38.6989 13.9162C38.8405 14.2484 38.9738 14.5839 39.0987 14.9226C39.1406 15.009 39.1487 15.108 39.1216 15.2001C39.0945 15.2923 39.034 15.371 38.9519 15.421C38.6506 15.6631 38.3473 15.902 38.0421 16.1376C37.9648 16.1957 37.9046 16.2735 37.8679 16.363C37.8312 16.4524 37.8193 16.5501 37.8334 16.6457C37.8682 17.0803 37.8933 17.513 37.9165 17.9476C37.9164 18.0422 37.9415 18.1351 37.9894 18.2166C38.0373 18.2982 38.1062 18.3654 38.1889 18.4113C38.5224 18.6044 38.8547 18.8015 39.1856 19.0024C39.2805 19.0402 39.3566 19.1141 39.3971 19.2079C39.4376 19.3016 39.4394 19.4076 39.402 19.5027Z"
            fill="white" />
        <path
            d="M30.3539 8.10364C30.3249 8.24852 30.3288 8.43783 30.238 8.52283C30.1472 8.60782 29.9675 8.5576 29.8246 8.57112C29.6314 8.5885 29.4383 8.60589 29.2335 8.631C29.1381 8.6342 29.0462 8.6675 28.9709 8.72614C28.8956 8.78479 28.8408 8.86576 28.8143 8.95746C28.6995 9.27709 28.5422 9.57985 28.3468 9.85764C28.2934 9.94715 28.234 10.033 28.1691 10.1146C28.1122 10.1708 28.0722 10.2419 28.0538 10.3198C28.0353 10.3977 28.0392 10.4792 28.0648 10.555C27.7982 10.6651 27.5355 10.7636 27.2805 10.8795C26.7821 11.1036 26.8324 11.1596 26.305 10.7926L26.1273 10.6709C27.4119 9.7881 28.1459 8.59237 28.2348 7.03927C28.2762 6.43827 28.193 5.8352 27.9906 5.26781C27.7882 4.70042 27.4708 4.18092 27.0584 3.74182C26.6322 3.26828 26.112 2.88887 25.5308 2.62788C24.9497 2.36689 24.3205 2.23005 23.6835 2.22612C23.0464 2.22219 22.4156 2.35125 21.8313 2.60505C21.247 2.85885 20.7221 3.2318 20.2901 3.70005C19.8582 4.1683 19.5287 4.72155 19.3228 5.3244C19.1169 5.92725 19.0391 6.56644 19.0943 7.20109C19.1495 7.83574 19.3366 8.45188 19.6435 9.01011C19.9505 9.56833 20.3705 10.0563 20.8769 10.443L19.7024 11.4803L19.7951 11.148C19.8177 11.0718 19.819 10.9908 19.7989 10.9139C19.7788 10.8369 19.7381 10.767 19.6811 10.7115C19.488 10.4893 19.2948 10.2556 19.1016 10.018C19.059 9.95044 18.998 9.89642 18.9259 9.86222C18.8537 9.82802 18.7733 9.81504 18.694 9.82481C18.412 9.85571 18.1319 9.87696 17.8499 9.90401C17.7803 9.9164 17.7086 9.90381 17.6475 9.86846C17.5863 9.83311 17.5397 9.77728 17.5157 9.71083C17.4094 9.45585 17.3032 9.19893 17.2085 8.93815C17.1727 8.86847 17.166 8.78741 17.1899 8.71278C17.2138 8.63816 17.2664 8.57609 17.336 8.54021L17.9793 8.04376C18.0437 7.99799 18.0938 7.93478 18.1236 7.86155C18.1533 7.78833 18.1616 7.70813 18.1474 7.63037C18.1145 7.32516 18.0933 7.01802 18.0836 6.71281C18.0847 6.63275 18.0632 6.55401 18.0215 6.48566C17.9798 6.4173 17.9196 6.36212 17.8479 6.32646C17.6103 6.19124 17.3805 6.04829 17.1448 5.91114C17.0785 5.88071 17.0253 5.82755 16.9948 5.76129C16.9644 5.69503 16.9586 5.62004 16.9787 5.54991C17.0443 5.27174 17.1139 4.99164 17.1912 4.71734C17.2099 4.65198 17.2503 4.59495 17.3058 4.55563C17.3613 4.5163 17.4285 4.49704 17.4964 4.50099C17.7687 4.50099 18.0411 4.47781 18.3135 4.47201C18.3977 4.47396 18.4807 4.45193 18.5529 4.4085C18.625 4.36506 18.6834 4.30201 18.7211 4.22668C18.8737 3.96204 19.0417 3.70512 19.2117 3.454C19.2569 3.39461 19.2851 3.32416 19.2936 3.25006C19.3021 3.17596 19.2905 3.10094 19.26 3.03288C19.1461 2.77017 19.0321 2.50552 18.9162 2.24281C18.8837 2.18365 18.8728 2.115 18.8855 2.04869C18.8982 1.98239 18.9336 1.9226 18.9857 1.87964C19.2059 1.68647 19.43 1.49845 19.658 1.31558C19.7102 1.27257 19.7757 1.24904 19.8434 1.24904C19.9111 1.24904 19.9766 1.27257 20.0288 1.31558C20.2645 1.47205 20.5002 1.62852 20.732 1.78692C20.7968 1.8325 20.8729 1.85932 20.952 1.86443C21.0311 1.86954 21.11 1.85275 21.1802 1.8159C21.4564 1.6942 21.7365 1.58023 22.0205 1.47978C22.0993 1.45858 22.1704 1.41533 22.2255 1.35511C22.2806 1.29488 22.3173 1.22019 22.3315 1.1398C22.3855 0.873218 22.4532 0.608573 22.5072 0.341996C22.5124 0.264506 22.5461 0.191662 22.6017 0.137464C22.6573 0.083266 22.731 0.0515368 22.8086 0.0483743C23.1003 0.0251936 23.3881 0.00973989 23.6837 8.12889e-05C23.7494 -0.00149131 23.8136 0.0197953 23.8654 0.0603086C23.9172 0.100822 23.9533 0.158051 23.9676 0.222229C24.0603 0.477216 24.1608 0.732203 24.2477 0.994917C24.2715 1.07571 24.3184 1.14781 24.3825 1.20237C24.4467 1.25693 24.5254 1.29158 24.609 1.30206C24.8987 1.36001 25.1885 1.43728 25.4705 1.52034C25.549 1.55096 25.6346 1.55831 25.7172 1.54152C25.7998 1.52474 25.8757 1.48452 25.936 1.42569C26.1292 1.24411 26.3359 1.07025 26.5368 0.894468C26.5878 0.831789 26.6616 0.79191 26.742 0.783581C26.8224 0.775252 26.9029 0.799152 26.9657 0.850038C27.1955 0.98719 27.4196 1.13014 27.6437 1.27695C27.7076 1.3122 27.7566 1.3693 27.7818 1.43778C27.807 1.50626 27.8066 1.58152 27.7808 1.64977C27.7036 1.91442 27.634 2.18292 27.5548 2.4495C27.5284 2.52952 27.5252 2.61542 27.5457 2.69717C27.5663 2.77892 27.6096 2.85315 27.6707 2.91118C27.8639 3.1256 28.0571 3.34968 28.2309 3.58342C28.279 3.65497 28.3466 3.71121 28.4257 3.74545C28.5048 3.77969 28.5921 3.7905 28.6772 3.77659C28.9321 3.74762 29.1891 3.72444 29.4498 3.69932C29.492 3.68742 29.536 3.68411 29.5795 3.68959C29.6229 3.69506 29.6648 3.70921 29.7026 3.7312C29.7405 3.75319 29.7735 3.78256 29.7998 3.81757C29.826 3.85258 29.845 3.89251 29.8555 3.93499C29.956 4.17259 30.0487 4.4102 30.1395 4.65166C30.1762 4.72127 30.1842 4.80247 30.1618 4.87792C30.1394 4.95336 30.0884 5.01706 30.0197 5.05539C29.8053 5.22538 29.5928 5.39344 29.3764 5.55957C29.3137 5.60401 29.2644 5.66476 29.2337 5.73525C29.2031 5.80574 29.1923 5.88326 29.2026 5.95943C29.2277 6.28396 29.247 6.61042 29.2644 6.93688C29.2657 7.00651 29.2857 7.0745 29.3224 7.13367C29.3592 7.19284 29.4112 7.24098 29.473 7.273C29.7087 7.41016 29.9424 7.54924 30.1762 7.69026C30.2545 7.72163 30.3171 7.78275 30.3504 7.86023C30.3837 7.93772 30.385 8.02524 30.3539 8.10364Z"
            fill="white" />
        <path
            d="M32.952 22.974C30.9102 23.9244 28.9437 23.7467 27.0776 22.4834C27.0417 22.4628 27.0116 22.4334 26.9903 22.3979C26.9689 22.3624 26.9571 22.3219 26.9559 22.2805C26.9405 22.0874 26.9077 21.8942 26.8806 21.701C26.8534 21.5782 26.8623 21.4502 26.9062 21.3323C26.95 21.2144 27.027 21.1117 27.1279 21.0365C27.4988 21.2954 27.8349 21.5793 28.2116 21.7899C29.0453 22.2526 30.0025 22.444 30.95 22.3375C31.8976 22.231 32.7884 21.832 33.4987 21.1958C34.2089 20.5597 34.7033 19.718 34.9131 18.7879C35.123 17.8577 35.0377 16.8853 34.6694 16.0058C34.301 15.1264 33.6677 14.3835 32.8576 13.8806C32.0475 13.3777 31.1008 13.1396 30.1492 13.1996C29.1976 13.2596 28.2883 13.6146 27.5478 14.2152C26.8072 14.8158 26.2722 15.6323 26.0171 16.5511C25.9727 16.7114 25.9051 16.7693 25.7486 16.7674C25.6308 16.7674 25.511 16.7983 25.3932 16.7906C25.2755 16.7856 25.1597 16.7594 25.0513 16.7133C24.8272 16.6071 24.7866 16.5202 24.8581 16.2787C25.567 13.9896 27.0796 12.5408 29.4401 12.1062C30.8102 11.8638 32.2216 12.1253 33.4139 12.8425C34.6062 13.5596 35.4987 14.6839 35.9267 16.0077C36.3548 17.3315 36.2893 18.7655 35.7426 20.0449C35.1958 21.3243 34.2046 22.3626 32.952 22.9682V22.974Z"
            fill="white" />
        <path
            d="M27.8852 5.9267C27.6807 4.96313 27.1549 4.09764 26.394 3.47218C25.633 2.84671 24.6821 2.4984 23.6972 2.48438C23.4615 2.50756 23.222 2.51721 22.9882 2.55585C22.7491 2.59486 22.5134 2.65234 22.2832 2.72777C21.3763 3.03734 20.5987 3.64085 20.0738 4.44257C19.5489 5.24429 19.3067 6.19832 19.3856 7.15334C19.43 7.75042 19.6008 8.33126 19.8865 8.85741C20.1722 9.38357 20.5664 9.84305 21.043 10.2055C21.1047 10.2472 21.1798 10.2644 21.2536 10.2537C21.4552 10.2131 21.6647 10.2474 21.8427 10.3503C22.1199 10.4931 22.3883 10.6525 22.6463 10.8275C22.9163 11.0265 23.2462 11.1274 23.5813 11.1134C23.6895 11.1134 23.7976 11.0979 23.9077 11.1134C23.9614 11.1134 24.0146 11.1027 24.064 11.0818C24.1135 11.0609 24.1582 11.0302 24.1956 10.9917C24.4486 10.7715 24.7055 10.5512 24.9683 10.3542C25.0748 10.2765 25.2057 10.2395 25.3372 10.2499C25.485 10.2852 25.6239 10.351 25.7448 10.4431C25.7786 10.4691 25.82 10.4832 25.8626 10.4832C25.9053 10.4832 25.9467 10.4691 25.9805 10.4431C26.7188 9.9725 27.2964 9.28841 27.6366 8.4817C27.9769 7.67499 28.0635 6.78385 27.8852 5.9267ZM23.6798 10.2286C23.0093 10.231 22.353 10.0362 21.7923 9.66864C21.2316 9.30104 20.7912 8.77679 20.526 8.16102C20.2607 7.54526 20.1823 6.86513 20.3003 6.20514C20.4184 5.54515 20.7278 4.9344 21.1901 4.44879C21.6523 3.96317 22.2471 3.6241 22.9005 3.4737C23.5539 3.32329 24.237 3.3682 24.8651 3.60282C25.4932 3.83745 26.0385 4.25145 26.4332 4.7934C26.828 5.33534 27.0548 5.98133 27.0854 6.65109C27.1038 7.11139 27.0296 7.57069 26.8671 8.00175C26.7046 8.43281 26.4573 8.82685 26.1396 9.16051C25.822 9.49416 25.4406 9.76063 25.0181 9.94411C24.5955 10.1276 24.1404 10.2243 23.6798 10.2286Z"
            fill="white" />
        <path
            d="M24.3733 13.2188C24.3346 13.2709 24.2979 13.3231 24.2574 13.3733C24.1956 13.4545 24.1415 13.5781 24.0642 13.5993C23.9148 13.63 23.7612 13.6345 23.6102 13.6129C23.4924 13.6013 23.4345 13.5394 23.4808 13.3965C23.5832 13.0778 23.6566 12.7474 23.759 12.4306C23.8344 12.2519 23.8486 12.0533 23.7994 11.8656C23.7501 11.678 23.6401 11.5119 23.4866 11.3933H23.8614C23.958 11.6406 24.043 11.8704 24.1376 12.0965C24.2323 12.3225 24.3308 12.5408 24.4254 12.761C24.4622 12.8341 24.4768 12.9163 24.4675 12.9976C24.4583 13.0789 24.4255 13.1558 24.3733 13.2188Z"
            fill="white" />
        <path
            d="M14.676 14.1577C12.8145 14.1528 10.9933 14.6999 9.44268 15.7298C7.89206 16.7598 6.68162 18.2264 5.96441 19.9442C5.24719 21.662 5.05539 23.5539 5.41327 25.3807C5.77114 27.2075 6.66262 28.8871 7.97499 30.2073C9.28736 31.5275 10.9617 32.429 12.7863 32.7977C14.611 33.1665 16.504 32.9859 18.226 32.2789C19.948 31.572 21.4218 30.3703 22.461 28.8258C23.5001 27.2813 24.058 25.4634 24.0642 23.6019C24.0693 21.1053 23.0836 18.7086 21.3235 16.938C19.5634 15.1674 17.1726 14.1675 14.676 14.1577ZM14.6219 31.0429C13.6389 31.0394 12.6662 30.8419 11.7597 30.4618C10.8531 30.0817 10.0304 29.5264 9.33885 28.8278C8.64725 28.1292 8.1003 27.301 7.72934 26.3907C7.35839 25.4803 7.17071 24.5057 7.17707 23.5227C7.17707 19.4178 10.546 16.0933 14.7108 16.0953C16.693 16.106 18.5897 16.9038 19.9837 18.313C21.3777 19.7222 22.1548 21.6275 22.144 23.6096C22.1333 25.5918 21.3355 27.4886 19.9263 28.8826C18.5171 30.2766 16.6118 31.0537 14.6296 31.0429H14.6219Z"
            fill="white" />
    </symbol>
</svg>