<svg width="0" height="0" class="hidden">

    <symbol xmlns="http://www.w3.org/2000/svg" width="19" height="25" viewBox="0 0 19 25"
        id="map-icon"
        fill="none">
        <path
            d="M9.34824 21.0616C9.68894 21.0616 10.7825 20.6066 12.3472 19.1571C14.8331 16.865 17.7354 12.8369 17.7354 9.04477C17.7354 6.80309 16.8464 4.65323 15.264 3.06813C13.6817 1.48303 11.5356 0.592529 9.29776 0.592529C7.05997 0.592529 4.91384 1.48303 3.33148 3.06813C1.74913 4.65323 0.860171 6.80309 0.860171 9.04477C0.860171 15.0026 7.78774 20.9352 9.34824 21.0616ZM9.29776 4.00966C10.0931 4.00966 10.8705 4.2459 11.5318 4.68851C12.193 5.13113 12.7084 5.76023 13.0128 6.49626C13.3171 7.2323 13.3968 8.04221 13.2416 8.82359C13.0864 9.60496 12.7035 10.3227 12.1411 10.886C11.5788 11.4494 10.8623 11.833 10.0822 11.9884C9.30222 12.1439 8.49371 12.0641 7.75895 11.7592C7.02419 11.4543 6.39618 10.938 5.95434 10.2756C5.51249 9.61321 5.27666 8.83443 5.27666 8.03775C5.27777 6.96977 5.70178 5.94586 6.45564 5.19069C7.2095 4.43552 8.23164 4.01078 9.29776 4.00966ZM18.4672 21.8537C18.4672 22.6417 15.2327 24.1712 9.29776 24.1712C3.36285 24.1712 0.128296 22.6417 0.128296 21.8537C0.128296 21.3271 1.64252 20.3495 5.01587 19.8439C5.07448 19.8346 5.13127 19.8162 5.18412 19.7891C6.76564 21.2849 8.31352 22.2456 9.24729 22.3172H9.36506C10.6269 22.3172 12.465 20.7625 13.2053 20.0799C13.2978 19.9956 13.3904 19.9029 13.4829 19.8102C13.5146 19.8205 13.5469 19.829 13.5797 19.8355C16.953 20.3495 18.4672 21.3271 18.4672 21.8537Z"
            fill="white" />
    </symbol>
</svg>